PixelPanel-ThinSquare.ufo
<glyph name="exclam" format="2">
  <advance width="600"/>
  <unicode hex="0021"/>
  <outline>
    <contour>
      <point x="245.25" y="55" type="line"/>
      <point x="254.75" y="55" type="line"/>
      <point x="255" y="55"/>
      <point x="255" y="55"/>
      <point x="255" y="54.75" type="curve"/>
      <point x="255" y="45.25" type="line"/>
      <point x="255" y="45"/>
      <point x="255" y="45"/>
      <point x="254.75" y="45" type="curve"/>
      <point x="245.25" y="45" type="line"/>
      <point x="245" y="45"/>
      <point x="245" y="45"/>
      <point x="245" y="45.25" type="curve"/>
      <point x="245" y="54.75" type="line"/>
      <point x="245" y="55"/>
      <point x="245" y="55"/>
      <point x="245.25" y="55" type="curve"/>
    </contour>
    <contour>
      <point x="245.25" y="255" type="line"/>
      <point x="254.75" y="255" type="line"/>
      <point x="255" y="255"/>
      <point x="255" y="255"/>
      <point x="255" y="254.75" type="curve"/>
      <point x="255" y="245.25" type="line"/>
      <point x="255" y="245"/>
      <point x="255" y="245"/>
      <point x="254.75" y="245" type="curve"/>
      <point x="245.25" y="245" type="line"/>
      <point x="245" y="245"/>
      <point x="245" y="245"/>
      <point x="245" y="245.25" type="curve"/>
      <point x="245" y="254.75" type="line"/>
      <point x="245" y="255"/>
      <point x="245" y="255"/>
      <point x="245.25" y="255" type="curve"/>
    </contour>
    <contour>
      <point x="245.25" y="355" type="line"/>
      <point x="254.75" y="355" type="line"/>
      <point x="255" y="355"/>
      <point x="255" y="355"/>
      <point x="255" y="354.75" type="curve"/>
      <point x="255" y="345.25" type="line"/>
      <point x="255" y="345"/>
      <point x="255" y="345"/>
      <point x="254.75" y="345" type="curve"/>
      <point x="245.25" y="345" type="line"/>
      <point x="245" y="345"/>
      <point x="245" y="345"/>
      <point x="245" y="345.25" type="curve"/>
      <point x="245" y="354.75" type="line"/>
      <point x="245" y="355"/>
      <point x="245" y="355"/>
      <point x="245.25" y="355" type="curve"/>
    </contour>
    <contour>
      <point x="245.25" y="455" type="line"/>
      <point x="254.75" y="455" type="line"/>
      <point x="255" y="455"/>
      <point x="255" y="455"/>
      <point x="255" y="454.75" type="curve"/>
      <point x="255" y="445.25" type="line"/>
      <point x="255" y="445"/>
      <point x="255" y="445"/>
      <point x="254.75" y="445" type="curve"/>
      <point x="245.25" y="445" type="line"/>
      <point x="245" y="445"/>
      <point x="245" y="445"/>
      <point x="245" y="445.25" type="curve"/>
      <point x="245" y="454.75" type="line"/>
      <point x="245" y="455"/>
      <point x="245" y="455"/>
      <point x="245.25" y="455" type="curve"/>
    </contour>
    <contour>
      <point x="245.25" y="555" type="line"/>
      <point x="254.75" y="555" type="line"/>
      <point x="255" y="555"/>
      <point x="255" y="555"/>
      <point x="255" y="554.75" type="curve"/>
      <point x="255" y="545.25" type="line"/>
      <point x="255" y="545"/>
      <point x="255" y="545"/>
      <point x="254.75" y="545" type="curve"/>
      <point x="245.25" y="545" type="line"/>
      <point x="245" y="545"/>
      <point x="245" y="545"/>
      <point x="245" y="545.25" type="curve"/>
      <point x="245" y="554.75" type="line"/>
      <point x="245" y="555"/>
      <point x="245" y="555"/>
      <point x="245.25" y="555" type="curve"/>
    </contour>
    <contour>
      <point x="245.25" y="655" type="line"/>
      <point x="254.75" y="655" type="line"/>
      <point x="255" y="655"/>
      <point x="255" y="655"/>
      <point x="255" y="654.75" type="curve"/>
      <point x="255" y="645.25" type="line"/>
      <point x="255" y="645"/>
      <point x="255" y="645"/>
      <point x="254.75" y="645" type="curve"/>
      <point x="245.25" y="645" type="line"/>
      <point x="245" y="645"/>
      <point x="245" y="645"/>
      <point x="245" y="645.25" type="curve"/>
      <point x="245" y="654.75" type="line"/>
      <point x="245" y="655"/>
      <point x="245" y="655"/>
      <point x="245.25" y="655" type="curve"/>
    </contour>
  </outline>
</glyph>
<glyph name="quotedbl" format="2">
  <advance width="600"/>
  <unicode hex="0022"/>
  <outline>
    <contour>
      <point x="345.25" y="455" type="line"/>
      <point x="354.75" y="455" type="line"/>
      <point x="355" y="455"/>
      <point x="355" y="455"/>
      <point x="355" y="454.75" type="curve"/>
      <point x="355" y="445.25" type="line"/>
      <point x="355" y="445"/>
      <point x="355" y="445"/>
      <point x="354.75" y="445" type="curve"/>
      <point x="345.25" y="445" type="line"/>
      <point x="345" y="445"/>
      <point x="345" y="445"/>
      <point x="345" y="445.25" type="curve"/>
      <point x="345" y="454.75" type="line"/>
      <point x="345" y="455"/>
      <point x="345" y="455"/>
      <point x="345.25" y="455" type="curve"/>
    </contour>
    <contour>
      <point x="145.25" y="455" type="line"/>
      <point x="154.75" y="455" type="line"/>
      <point x="155" y="455"/>
      <point x="155" y="455"/>
      <point x="155" y="454.75" type="curve"/>
      <point x="155" y="445.25" type="line"/>
      <point x="155" y="445"/>
      <point x="155" y="445"/>
      <point x="154.75" y="445" type="curve"/>
      <point x="145.25" y="445" type="line"/>
      <point x="145" y="445"/>
      <point x="145" y="445"/>
      <point x="145" y="445.25" type="curve"/>
      <point x="145" y="454.75" type="line"/>
      <point x="145" y="455"/>
      <point x="145" y="455"/>
      <point x="145.25" y="455" type="curve"/>
    </contour>
    <contour>
      <point x="345.25" y="555" type="line"/>
      <point x="354.75" y="555" type="line"/>
      <point x="355" y="555"/>
      <point x="355" y="555"/>
      <point x="355" y="554.75" type="curve"/>
      <point x="355" y="545.25" type="line"/>
      <point x="355" y="545"/>
      <point x="355" y="545"/>
      <point x="354.75" y="545" type="curve"/>
      <point x="345.25" y="545" type="line"/>
      <point x="345" y="545"/>
      <point x="345" y="545"/>
      <point x="345" y="545.25" type="curve"/>
      <point x="345" y="554.75" type="line"/>
      <point x="345" y="555"/>
      <point x="345" y="555"/>
      <point x="345.25" y="555" type="curve"/>
    </contour>
    <contour>
      <point x="145.25" y="555" type="line"/>
      <point x="154.75" y="555" type="line"/>
      <point x="155" y="555"/>
      <point x="155" y="555"/>
      <point x="155" y="554.75" type="curve"/>
      <point x="155" y="545.25" type="line"/>
      <point x="155" y="545"/>
      <point x="155" y="545"/>
      <point x="154.75" y="545" type="curve"/>
      <point x="145.25" y="545" type="line"/>
      <point x="145" y="545"/>
      <point x="145" y="545"/>
      <point x="145" y="545.25" type="curve"/>
      <point x="145" y="554.75" type="line"/>
      <point x="145" y="555"/>
      <point x="145" y="555"/>
      <point x="145.25" y="555" type="curve"/>
    </contour>
    <contour>
      <point x="345.25" y="655" type="line"/>
      <point x="354.75" y="655" type="line"/>
      <point x="355" y="655"/>
      <point x="355" y="655"/>
      <point x="355" y="654.75" type="curve"/>
      <point x="355" y="645.25" type="line"/>
      <point x="355" y="645"/>
      <point x="355" y="645"/>
      <point x="354.75" y="645" type="curve"/>
      <point x="345.25" y="645" type="line"/>
      <point x="345" y="645"/>
      <point x="345" y="645"/>
      <point x="345" y="645.25" type="curve"/>
      <point x="345" y="654.75" type="line"/>
      <point x="345" y="655"/>
      <point x="345" y="655"/>
      <point x="345.25" y="655" type="curve"/>
    </contour>
    <contour>
      <point x="145.25" y="655" type="line"/>
      <point x="154.75" y="655" type="line"/>
      <point x="155" y="655"/>
      <point x="155" y="655"/>
      <point x="155" y="654.75" type="curve"/>
      <point x="155" y="645.25" type="line"/>
      <point x="155" y="645"/>
      <point x="155" y="645"/>
      <point x="154.75" y="645" type="curve"/>
      <point x="145.25" y="645" type="line"/>
      <point x="145" y="645"/>
      <point x="145" y="645"/>
      <point x="145" y="645.25" type="curve"/>
      <point x="145" y="654.75" type="line"/>
      <point x="145" y="655"/>
      <point x="145" y="655"/>
      <point x="145.25" y="655" type="curve"/>
    </contour>
  </outline>
</glyph>
<glyph name="quotesingle" format="2">
  <advance width="600"/>
  <unicode hex="0027"/>
  <outline>
    <contour>
      <point x="245.25" y="455" type="line"/>
      <point x="254.75" y="455" type="line"/>
      <point x="255" y="455"/>
      <point x="255" y="455"/>
      <point x="255" y="454.75" type="curve"/>
      <point x="255" y="445.25" type="line"/>
      <point x="255" y="445"/>
      <point x="255" y="445"/>
      <point x="254.75" y="445" type="curve"/>
      <point x="245.25" y="445" type="line"/>
      <point x="245" y="445"/>
      <point x="245" y="445"/>
      <point x="245" y="445.25" type="curve"/>
      <point x="245" y="454.75" type="line"/>
      <point x="245" y="455"/>
      <point x="245" y="455"/>
      <point x="245.25" y="455" type="curve"/>
    </contour>
    <contour>
      <point x="245.25" y="555" type="line"/>
      <point x="254.75" y="555" type="line"/>
      <point x="255" y="555"/>
      <point x="255" y="555"/>
      <point x="255" y="554.75" type="curve"/>
      <point x="255" y="545.25" type="line"/>
      <point x="255" y="545"/>
      <point x="255" y="545"/>
      <point x="254.75" y="545" type="curve"/>
      <point x="245.25" y="545" type="line"/>
      <point x="245" y="545"/>
      <point x="245" y="545"/>
      <point x="245" y="545.25" type="curve"/>
      <point x="245" y="554.75" type="line"/>
      <point x="245" y="555"/>
      <point x="245" y="555"/>
      <point x="245.25" y="555" type="curve"/>
    </contour>
    <contour>
      <point x="245.25" y="655" type="line"/>
      <point x="254.75" y="655" type="line"/>
      <point x="255" y="655"/>
      <point x="255" y="655"/>
      <point x="255" y="654.75" type="curve"/>
      <point x="255" y="645.25" type="line"/>
      <point x="255" y="645"/>
      <point x="255" y="645"/>
      <point x="254.75" y="645" type="curve"/>
      <point x="245.25" y="645" type="line"/>
      <point x="245" y="645"/>
      <point x="245" y="645"/>
      <point x="245" y="645.25" type="curve"/>
      <point x="245" y="654.75" type="line"/>
      <point x="245" y="655"/>
      <point x="245" y="655"/>
      <point x="245.25" y="655" type="curve"/>
    </contour>
  </outline>
</glyph>
<glyph name="hyphen" format="2">
  <advance width="600"/>
  <unicode hex="002D"/>
  <outline>
    <contour>
      <point x="445.25" y="355" type="line"/>
      <point x="454.75" y="355" type="line"/>
      <point x="455" y="355"/>
      <point x="455" y="355"/>
      <point x="455" y="354.75" type="curve"/>
      <point x="455" y="345.25" type="line"/>
      <point x="455" y="345"/>
      <point x="455" y="345"/>
      <point x="454.75" y="345" type="curve"/>
      <point x="445.25" y="345" type="line"/>
      <point x="445" y="345"/>
      <point x="445" y="345"/>
      <point x="445" y="345.25" type="curve"/>
      <point x="445" y="354.75" type="line"/>
      <point x="445" y="355"/>
      <point x="445" y="355"/>
      <point x="445.25" y="355" type="curve"/>
    </contour>
    <contour>
      <point x="345.25" y="355" type="line"/>
      <point x="354.75" y="355" type="line"/>
      <point x="355" y="355"/>
      <point x="355" y="355"/>
      <point x="355" y="354.75" type="curve"/>
      <point x="355" y="345.25" type="line"/>
      <point x="355" y="345"/>
      <point x="355" y="345"/>
      <point x="354.75" y="345" type="curve"/>
      <point x="345.25" y="345" type="line"/>
      <point x="345" y="345"/>
      <point x="345" y="345"/>
      <point x="345" y="345.25" type="curve"/>
      <point x="345" y="354.75" type="line"/>
      <point x="345" y="355"/>
      <point x="345" y="355"/>
      <point x="345.25" y="355" type="curve"/>
    </contour>
    <contour>
      <point x="245.25" y="355" type="line"/>
      <point x="254.75" y="355" type="line"/>
      <point x="255" y="355"/>
      <point x="255" y="355"/>
      <point x="255" y="354.75" type="curve"/>
      <point x="255" y="345.25" type="line"/>
      <point x="255" y="345"/>
      <point x="255" y="345"/>
      <point x="254.75" y="345" type="curve"/>
      <point x="245.25" y="345" type="line"/>
      <point x="245" y="345"/>
      <point x="245" y="345"/>
      <point x="245" y="345.25" type="curve"/>
      <point x="245" y="354.75" type="line"/>
      <point x="245" y="355"/>
      <point x="245" y="355"/>
      <point x="245.25" y="355" type="curve"/>
    </contour>
    <contour>
      <point x="145.25" y="355" type="line"/>
      <point x="154.75" y="355" type="line"/>
      <point x="155" y="355"/>
      <point x="155" y="355"/>
      <point x="155" y="354.75" type="curve"/>
      <point x="155" y="345.25" type="line"/>
      <point x="155" y="345"/>
      <point x="155" y="345"/>
      <point x="154.75" y="345" type="curve"/>
      <point x="145.25" y="345" type="line"/>
      <point x="145" y="345"/>
      <point x="145" y="345"/>
      <point x="145" y="345.25" type="curve"/>
      <point x="145" y="354.75" type="line"/>
      <point x="145" y="355"/>
      <point x="145" y="355"/>
      <point x="145.25" y="355" type="curve"/>
    </contour>
    <contour>
      <point x="45.25" y="355" type="line"/>
      <point x="54.75" y="355" type="line"/>
      <point x="55" y="355"/>
      <point x="55" y="355"/>
      <point x="55" y="354.75" type="curve"/>
      <point x="55" y="345.25" type="line"/>
      <point x="55" y="345"/>
      <point x="55" y="345"/>
      <point x="54.75" y="345" type="curve"/>
      <point x="45.25" y="345" type="line"/>
      <point x="45" y="345"/>
      <point x="45" y="345"/>
      <point x="45" y="345.25" type="curve"/>
      <point x="45" y="354.75" type="line"/>
      <point x="45" y="355"/>
      <point x="45" y="355"/>
      <point x="45.25" y="355" type="curve"/>
    </contour>
  </outline>
</glyph>
<glyph name="asciicircum" format="2">
  <advance width="600"/>
  <unicode hex="005E"/>
  <outline>
    <contour>
      <point x="445" y="455" type="line"/>
      <point x="455" y="455" type="line"/>
      <point x="455" y="455"/>
      <point x="455" y="455"/>
      <point x="455" y="455" type="curve"/>
      <point x="455" y="445" type="line"/>
      <point x="455" y="445"/>
      <point x="455" y="445"/>
      <point x="455" y="445" type="curve"/>
      <point x="445" y="445" type="line"/>
      <point x="445" y="445"/>
      <point x="445" y="445"/>
      <point x="445" y="445" type="curve"/>
      <point x="445" y="455" type="line"/>
      <point x="445" y="455"/>
      <point x="445" y="455"/>
      <point x="445" y="455" type="curve"/>
    </contour>
    <contour>
      <point x="45" y="455" type="line"/>
      <point x="55" y="455" type="line"/>
      <point x="55" y="455"/>
      <point x="55" y="455"/>
      <point x="55" y="455" type="curve"/>
      <point x="55" y="445" type="line"/>
      <point x="55" y="445"/>
      <point x="55" y="445"/>
      <point x="55" y="445" type="curve"/>
      <point x="45" y="445" type="line"/>
      <point x="45" y="445"/>
      <point x="45" y="445"/>
      <point x="45" y="445" type="curve"/>
      <point x="45" y="455" type="line"/>
      <point x="45" y="455"/>
      <point x="45" y="455"/>
      <point x="45" y="455" type="curve"/>
    </contour>
    <contour>
      <point x="345" y="555" type="line"/>
      <point x="355" y="555" type="line"/>
      <point x="355" y="555"/>
      <point x="355" y="555"/>
      <point x="355" y="555" type="curve"/>
      <point x="355" y="545" type="line"/>
      <point x="355" y="545"/>
      <point x="355" y="545"/>
      <point x="355" y="545" type="curve"/>
      <point x="345" y="545" type="line"/>
      <point x="345" y="545"/>
      <point x="345" y="545"/>
      <point x="345" y="545" type="curve"/>
      <point x="345" y="555" type="line"/>
      <point x="345" y="555"/>
      <point x="345" y="555"/>
      <point x="345" y="555" type="curve"/>
    </contour>
    <contour>
      <point x="145" y="555" type="line"/>
      <point x="155" y="555" type="line"/>
      <point x="155" y="555"/>
      <point x="155" y="555"/>
      <point x="155" y="555" type="curve"/>
      <point x="155" y="545" type="line"/>
      <point x="155" y="545"/>
      <point x="155" y="545"/>
      <point x="155" y="545" type="curve"/>
      <point x="145" y="545" type="line"/>
      <point x="145" y="545"/>
      <point x="145" y="545"/>
      <point x="145" y="545" type="curve"/>
      <point x="145" y="555" type="line"/>
      <point x="145" y="555"/>
      <point x="145" y="555"/>
      <point x="145" y="555" type="curve"/>
    </contour>
    <contour>
      <point x="245" y="655" type="line"/>
      <point x="255" y="655" type="line"/>
      <point x="255" y="655"/>
      <point x="255" y="655"/>
      <point x="255" y="655" type="curve"/>
      <point x="255" y="645" type="line"/>
      <point x="255" y="645"/>
      <point x="255" y="645"/>
      <point x="255" y="645" type="curve"/>
      <point x="245" y="645" type="line"/>
      <point x="245" y="645"/>
      <point x="245" y="645"/>
      <point x="245" y="645" type="curve"/>
      <point x="245" y="655" type="line"/>
      <point x="245" y="655"/>
      <point x="245" y="655"/>
      <point x="245" y="655" type="curve"/>
    </contour>
  </outline>
</glyph>
<glyph name="underscore" format="2">
  <advance width="600"/>
  <unicode hex="005F"/>
  <outline>
    <contour>
      <point x="445.25" y="-45" type="line"/>
      <point x="454.75" y="-45" type="line"/>
      <point x="455" y="-45"/>
      <point x="455" y="-45"/>
      <point x="455" y="-45.25" type="curve"/>
      <point x="455" y="-54.75" type="line"/>
      <point x="455" y="-55"/>
      <point x="455" y="-55"/>
      <point x="454.75" y="-55" type="curve"/>
      <point x="445.25" y="-55" type="line"/>
      <point x="445" y="-55"/>
      <point x="445" y="-55"/>
      <point x="445" y="-54.75" type="curve"/>
      <point x="445" y="-45.25" type="line"/>
      <point x="445" y="-45"/>
      <point x="445" y="-45"/>
      <point x="445.25" y="-45" type="curve"/>
    </contour>
    <contour>
      <point x="345.25" y="-45" type="line"/>
      <point x="354.75" y="-45" type="line"/>
      <point x="355" y="-45"/>
      <point x="355" y="-45"/>
      <point x="355" y="-45.25" type="curve"/>
      <point x="355" y="-54.75" type="line"/>
      <point x="355" y="-55"/>
      <point x="355" y="-55"/>
      <point x="354.75" y="-55" type="curve"/>
      <point x="345.25" y="-55" type="line"/>
      <point x="345" y="-55"/>
      <point x="345" y="-55"/>
      <point x="345" y="-54.75" type="curve"/>
      <point x="345" y="-45.25" type="line"/>
      <point x="345" y="-45"/>
      <point x="345" y="-45"/>
      <point x="345.25" y="-45" type="curve"/>
    </contour>
    <contour>
      <point x="245.25" y="-45" type="line"/>
      <point x="254.75" y="-45" type="line"/>
      <point x="255" y="-45"/>
      <point x="255" y="-45"/>
      <point x="255" y="-45.25" type="curve"/>
      <point x="255" y="-54.75" type="line"/>
      <point x="255" y="-55"/>
      <point x="255" y="-55"/>
      <point x="254.75" y="-55" type="curve"/>
      <point x="245.25" y="-55" type="line"/>
      <point x="245" y="-55"/>
      <point x="245" y="-55"/>
      <point x="245" y="-54.75" type="curve"/>
      <point x="245" y="-45.25" type="line"/>
      <point x="245" y="-45"/>
      <point x="245" y="-45"/>
      <point x="245.25" y="-45" type="curve"/>
    </contour>
    <contour>
      <point x="145.25" y="-45" type="line"/>
      <point x="154.75" y="-45" type="line"/>
      <point x="155" y="-45"/>
      <point x="155" y="-45"/>
      <point x="155" y="-45.25" type="curve"/>
      <point x="155" y="-54.75" type="line"/>
      <point x="155" y="-55"/>
      <point x="155" y="-55"/>
      <point x="154.75" y="-55" type="curve"/>
      <point x="145.25" y="-55" type="line"/>
      <point x="145" y="-55"/>
      <point x="145" y="-55"/>
      <point x="145" y="-54.75" type="curve"/>
      <point x="145" y="-45.25" type="line"/>
      <point x="145" y="-45"/>
      <point x="145" y="-45"/>
      <point x="145.25" y="-45" type="curve"/>
    </contour>
    <contour>
      <point x="45.25" y="-45" type="line"/>
      <point x="54.75" y="-45" type="line"/>
      <point x="55" y="-45"/>
      <point x="55" y="-45"/>
      <point x="55" y="-45.25" type="curve"/>
      <point x="55" y="-54.75" type="line"/>
      <point x="55" y="-55"/>
      <point x="55" y="-55"/>
      <point x="54.75" y="-55" type="curve"/>
      <point x="45.25" y="-55" type="line"/>
      <point x="45" y="-55"/>
      <point x="45" y="-55"/>
      <point x="45" y="-54.75" type="curve"/>
      <point x="45" y="-45.25" type="line"/>
      <point x="45" y="-45"/>
      <point x="45" y="-45"/>
      <point x="45.25" y="-45" type="curve"/>
    </contour>
  </outline>
</glyph>
<glyph name="w" format="2">
  <advance width="600"/>
  <unicode hex="0077"/>
  <outline>
    <contour>
      <point x="345.25" y="55" type="line"/>
      <point x="354.75" y="55" type="line"/>
      <point x="355" y="55"/>
      <point x="355" y="55"/>
      <point x="355" y="54.75" type="curve"/>
      <point x="355" y="45.25" type="line"/>
      <point x="355" y="45"/>
      <point x="355" y="45"/>
      <point x="354.75" y="45" type="curve"/>
      <point x="345.25" y="45" type="line"/>
      <point x="345" y="45"/>
      <point x="345" y="45"/>
      <point x="345" y="45.25" type="curve"/>
      <point x="345" y="54.75" type="line"/>
      <point x="345" y="55"/>
      <point x="345" y="55"/>
      <point x="345.25" y="55" type="curve"/>
    </contour>
    <contour>
      <point x="145.25" y="55" type="line"/>
      <point x="154.75" y="55" type="line"/>
      <point x="155" y="55"/>
      <point x="155" y="55"/>
      <point x="155" y="54.75" type="curve"/>
      <point x="155" y="45.25" type="line"/>
      <point x="155" y="45"/>
      <point x="155" y="45"/>
      <point x="154.75" y="45" type="curve"/>
      <point x="145.25" y="45" type="line"/>
      <point x="145" y="45"/>
      <point x="145" y="45"/>
      <point x="145" y="45.25" type="curve"/>
      <point x="145" y="54.75" type="line"/>
      <point x="145" y="55"/>
      <point x="145" y="55"/>
      <point x="145.25" y="55" type="curve"/>
    </contour>
    <contour>
      <point x="445.25" y="155" type="line"/>
      <point x="454.75" y="155" type="line"/>
      <point x="455" y="155"/>
      <point x="455" y="155"/>
      <point x="455" y="154.75" type="curve"/>
      <point x="455" y="145.25" type="line"/>
      <point x="455" y="145"/>
      <point x="455" y="145"/>
      <point x="454.75" y="145" type="curve"/>
      <point x="445.25" y="145" type="line"/>
      <point x="445" y="145"/>
      <point x="445" y="145"/>
      <point x="445" y="145.25" type="curve"/>
      <point x="445" y="154.75" type="line"/>
      <point x="445" y="155"/>
      <point x="445" y="155"/>
      <point x="445.25" y="155" type="curve"/>
    </contour>
    <contour>
      <point x="245.25" y="155" type="line"/>
      <point x="254.75" y="155" type="line"/>
      <point x="255" y="155"/>
      <point x="255" y="155"/>
      <point x="255" y="154.75" type="curve"/>
      <point x="255" y="145.25" type="line"/>
      <point x="255" y="145"/>
      <point x="255" y="145"/>
      <point x="254.75" y="145" type="curve"/>
      <point x="245.25" y="145" type="line"/>
      <point x="245" y="145"/>
      <point x="245" y="145"/>
      <point x="245" y="145.25" type="curve"/>
      <point x="245" y="154.75" type="line"/>
      <point x="245" y="155"/>
      <point x="245" y="155"/>
      <point x="245.25" y="155" type="curve"/>
    </contour>
    <contour>
      <point x="45.25" y="155" type="line"/>
      <point x="54.75" y="155" type="line"/>
      <point x="55" y="155"/>
      <point x="55" y="155"/>
      <point x="55" y="154.75" type="curve"/>
      <point x="55" y="145.25" type="line"/>
      <point x="55" y="145"/>
      <point x="55" y="145"/>
      <point x="54.75" y="145" type="curve"/>
      <point x="45.25" y="145" type="line"/>
      <point x="45" y="145"/>
      <point x="45" y="145"/>
      <point x="45" y="145.25" type="curve"/>
      <point x="45" y="154.75" type="line"/>
      <point x="45" y="155"/>
      <point x="45" y="155"/>
      <point x="45.25" y="155" type="curve"/>
    </contour>
    <contour>
      <point x="445.25" y="255" type="line"/>
      <point x="454.75" y="255" type="line"/>
      <point x="455" y="255"/>
      <point x="455" y="255"/>
      <point x="455" y="254.75" type="curve"/>
      <point x="455" y="245.25" type="line"/>
      <point x="455" y="245"/>
      <point x="455" y="245"/>
      <point x="454.75" y="245" type="curve"/>
      <point x="445.25" y="245" type="line"/>
      <point x="445" y="245"/>
      <point x="445" y="245"/>
      <point x="445" y="245.25" type="curve"/>
      <point x="445" y="254.75" type="line"/>
      <point x="445" y="255"/>
      <point x="445" y="255"/>
      <point x="445.25" y="255" type="curve"/>
    </contour>
    <contour>
      <point x="245.25" y="255" type="line"/>
      <point x="254.75" y="255" type="line"/>
      <point x="255" y="255"/>
      <point x="255" y="255"/>
      <point x="255" y="254.75" type="curve"/>
      <point x="255" y="245.25" type="line"/>
      <point x="255" y="245"/>
      <point x="255" y="245"/>
      <point x="254.75" y="245" type="curve"/>
      <point x="245.25" y="245" type="line"/>
      <point x="245" y="245"/>
      <point x="245" y="245"/>
      <point x="245" y="245.25" type="curve"/>
      <point x="245" y="254.75" type="line"/>
      <point x="245" y="255"/>
      <point x="245" y="255"/>
      <point x="245.25" y="255" type="curve"/>
    </contour>
    <contour>
      <point x="45.25" y="255" type="line"/>
      <point x="54.75" y="255" type="line"/>
      <point x="55" y="255"/>
      <point x="55" y="255"/>
      <point x="55" y="254.75" type="curve"/>
      <point x="55" y="245.25" type="line"/>
      <point x="55" y="245"/>
      <point x="55" y="245"/>
      <point x="54.75" y="245" type="curve"/>
      <point x="45.25" y="245" type="line"/>
      <point x="45" y="245"/>
      <point x="45" y="245"/>
      <point x="45" y="245.25" type="curve"/>
      <point x="45" y="254.75" type="line"/>
      <point x="45" y="255"/>
      <point x="45" y="255"/>
      <point x="45.25" y="255" type="curve"/>
    </contour>
    <contour>
      <point x="445.25" y="355" type="line"/>
      <point x="454.75" y="355" type="line"/>
      <point x="455" y="355"/>
      <point x="455" y="355"/>
      <point x="455" y="354.75" type="curve"/>
      <point x="455" y="345.25" type="line"/>
      <point x="455" y="345"/>
      <point x="455" y="345"/>
      <point x="454.75" y="345" type="curve"/>
      <point x="445.25" y="345" type="line"/>
      <point x="445" y="345"/>
      <point x="445" y="345"/>
      <point x="445" y="345.25" type="curve"/>
      <point x="445" y="354.75" type="line"/>
      <point x="445" y="355"/>
      <point x="445" y="355"/>
      <point x="445.25" y="355" type="curve"/>
    </contour>
    <contour>
      <point x="45.25" y="355" type="line"/>
      <point x="54.75" y="355" type="line"/>
      <point x="55" y="355"/>
      <point x="55" y="355"/>
      <point x="55" y="354.75" type="curve"/>
      <point x="55" y="345.25" type="line"/>
      <point x="55" y="345"/>
      <point x="55" y="345"/>
      <point x="54.75" y="345" type="curve"/>
      <point x="45.25" y="345" type="line"/>
      <point x="45" y="345"/>
      <point x="45" y="345"/>
      <point x="45" y="345.25" type="curve"/>
      <point x="45" y="354.75" type="line"/>
      <point x="45" y="355"/>
      <point x="45" y="355"/>
      <point x="45.25" y="355" type="curve"/>
    </contour>
    <contour>
      <point x="445.25" y="455" type="line"/>
      <point x="454.75" y="455" type="line"/>
      <point x="455" y="455"/>
      <point x="455" y="455"/>
      <point x="455" y="454.75" type="curve"/>
      <point x="455" y="445.25" type="line"/>
      <point x="455" y="445"/>
      <point x="455" y="445"/>
      <point x="454.75" y="445" type="curve"/>
      <point x="445.25" y="445" type="line"/>
      <point x="445" y="445"/>
      <point x="445" y="445"/>
      <point x="445" y="445.25" type="curve"/>
      <point x="445" y="454.75" type="line"/>
      <point x="445" y="455"/>
      <point x="445" y="455"/>
      <point x="445.25" y="455" type="curve"/>
    </contour>
    <contour>
      <point x="45.25" y="455" type="line"/>
      <point x="54.75" y="455" type="line"/>
      <point x="55" y="455"/>
      <point x="55" y="455"/>
      <point x="55" y="454.75" type="curve"/>
      <point x="55" y="445.25" type="line"/>
      <point x="55" y="445"/>
      <point x="55" y="445"/>
      <point x="54.75" y="445" type="curve"/>
      <point x="45.25" y="445" type="line"/>
      <point x="45" y="445"/>
      <point x="45" y="445"/>
      <point x="45" y="445.25" type="curve"/>
      <point x="45" y="454.75" type="line"/>
      <point x="45" y="455"/>
      <point x="45" y="455"/>
      <point x="45.25" y="455" type="curve"/>
    </contour>
  </outline>
</glyph>
<glyph name="asciitilde" format="2">
  <advance width="600"/>
  <unicode hex="007E"/>
  <outline>
    <contour>
      <point x="345" y="455" type="line"/>
      <point x="355" y="455" type="line"/>
      <point x="355" y="455"/>
      <point x="355" y="455"/>
      <point x="355" y="455" type="curve"/>
      <point x="355" y="445" type="line"/>
      <point x="355" y="445"/>
      <point x="355" y="445"/>
      <point x="355" y="445" type="curve"/>
      <point x="345" y="445" type="line"/>
      <point x="345" y="445"/>
      <point x="345" y="445"/>
      <point x="345" y="445" type="curve"/>
      <point x="345" y="455" type="line"/>
      <point x="345" y="455"/>
      <point x="345" y="455"/>
      <point x="345" y="455" type="curve"/>
    </contour>
    <contour>
      <point x="45" y="455" type="line"/>
      <point x="55" y="455" type="line"/>
      <point x="55" y="455"/>
      <point x="55" y="455"/>
      <point x="55" y="455" type="curve"/>
      <point x="55" y="445" type="line"/>
      <point x="55" y="445"/>
      <point x="55" y="445"/>
      <point x="55" y="445" type="curve"/>
      <point x="45" y="445" type="line"/>
      <point x="45" y="445"/>
      <point x="45" y="445"/>
      <point x="45" y="445" type="curve"/>
      <point x="45" y="455" type="line"/>
      <point x="45" y="455"/>
      <point x="45" y="455"/>
      <point x="45" y="455" type="curve"/>
    </contour>
    <contour>
      <point x="445" y="555" type="line"/>
      <point x="455" y="555" type="line"/>
      <point x="455" y="555"/>
      <point x="455" y="555"/>
      <point x="455" y="555" type="curve"/>
      <point x="455" y="545" type="line"/>
      <point x="455" y="545"/>
      <point x="455" y="545"/>
      <point x="455" y="545" type="curve"/>
      <point x="445" y="545" type="line"/>
      <point x="445" y="545"/>
      <point x="445" y="545"/>
      <point x="445" y="545" type="curve"/>
      <point x="445" y="555" type="line"/>
      <point x="445" y="555"/>
      <point x="445" y="555"/>
      <point x="445" y="555" type="curve"/>
    </contour>
    <contour>
      <point x="245" y="555" type="line"/>
      <point x="255" y="555" type="line"/>
      <point x="255" y="555"/>
      <point x="255" y="555"/>
      <point x="255" y="555" type="curve"/>
      <point x="255" y="545" type="line"/>
      <point x="255" y="545"/>
      <point x="255" y="545"/>
      <point x="255" y="545" type="curve"/>
      <point x="245" y="545" type="line"/>
      <point x="245" y="545"/>
      <point x="245" y="545"/>
      <point x="245" y="545" type="curve"/>
      <point x="245" y="555" type="line"/>
      <point x="245" y="555"/>
      <point x="245" y="555"/>
      <point x="245" y="555" type="curve"/>
    </contour>
    <contour>
      <point x="45" y="555" type="line"/>
      <point x="55" y="555" type="line"/>
      <point x="55" y="555"/>
      <point x="55" y="555"/>
      <point x="55" y="555" type="curve"/>
      <point x="55" y="545" type="line"/>
      <point x="55" y="545"/>
      <point x="55" y="545"/>
      <point x="55" y="545" type="curve"/>
      <point x="45" y="545" type="line"/>
      <point x="45" y="545"/>
      <point x="45" y="545"/>
      <point x="45" y="545" type="curve"/>
      <point x="45" y="555" type="line"/>
      <point x="45" y="555"/>
      <point x="45" y="555"/>
      <point x="45" y="555" type="curve"/>
    </contour>
    <contour>
      <point x="445" y="655" type="line"/>
      <point x="455" y="655" type="line"/>
      <point x="455" y="655"/>
      <point x="455" y="655"/>
      <point x="455" y="655" type="curve"/>
      <point x="455" y="645" type="line"/>
      <point x="455" y="645"/>
      <point x="455" y="645"/>
      <point x="455" y="645" type="curve"/>
      <point x="445" y="645" type="line"/>
      <point x="445" y="645"/>
      <point x="445" y="645"/>
      <point x="445" y="645" type="curve"/>
      <point x="445" y="655" type="line"/>
      <point x="445" y="655"/>
      <point x="445" y="655"/>
      <point x="445" y="655" type="curve"/>
    </contour>
    <contour>
      <point x="145" y="655" type="line"/>
      <point x="155" y="655" type="line"/>
      <point x="155" y="655"/>
      <point x="155" y="655"/>
      <point x="155" y="655" type="curve"/>
      <point x="155" y="645" type="line"/>
      <point x="155" y="645"/>
      <point x="155" y="645"/>
      <point x="155" y="645" type="curve"/>
      <point x="145" y="645" type="line"/>
      <point x="145" y="645"/>
      <point x="145" y="645"/>
      <point x="145" y="645" type="curve"/>
      <point x="145" y="655" type="line"/>
      <point x="145" y="655"/>
      <point x="145" y="655"/>
      <point x="145" y="655" type="curve"/>
    </contour>
  </outline>
</glyph>
<glyph name="section" format="2">
  <advance width="600"/>
  <unicode hex="00A7"/>
  <outline>
    <contour>
      <point x="345.25" y="-45" type="line"/>
      <point x="354.75" y="-45" type="line"/>
      <point x="355" y="-45"/>
      <point x="355" y="-45"/>
      <point x="355" y="-45.25" type="curve"/>
      <point x="355" y="-54.75" type="line"/>
      <point x="355" y="-55"/>
      <point x="355" y="-55"/>
      <point x="354.75" y="-55" type="curve"/>
      <point x="345.25" y="-55" type="line"/>
      <point x="345" y="-55"/>
      <point x="345" y="-55"/>
      <point x="345" y="-54.75" type="curve"/>
      <point x="345" y="-45.25" type="line"/>
      <point x="345" y="-45"/>
      <point x="345" y="-45"/>
      <point x="345.25" y="-45" type="curve"/>
    </contour>
    <contour>
      <point x="245.25" y="-45" type="line"/>
      <point x="254.75" y="-45" type="line"/>
      <point x="255" y="-45"/>
      <point x="255" y="-45"/>
      <point x="255" y="-45.25" type="curve"/>
      <point x="255" y="-54.75" type="line"/>
      <point x="255" y="-55"/>
      <point x="255" y="-55"/>
      <point x="254.75" y="-55" type="curve"/>
      <point x="245.25" y="-55" type="line"/>
      <point x="245" y="-55"/>
      <point x="245" y="-55"/>
      <point x="245" y="-54.75" type="curve"/>
      <point x="245" y="-45.25" type="line"/>
      <point x="245" y="-45"/>
      <point x="245" y="-45"/>
      <point x="245.25" y="-45" type="curve"/>
    </contour>
    <contour>
      <point x="145.25" y="-45" type="line"/>
      <point x="154.75" y="-45" type="line"/>
      <point x="155" y="-45"/>
      <point x="155" y="-45"/>
      <point x="155" y="-45.25" type="curve"/>
      <point x="155" y="-54.75" type="line"/>
      <point x="155" y="-55"/>
      <point x="155" y="-55"/>
      <point x="154.75" y="-55" type="curve"/>
      <point x="145.25" y="-55" type="line"/>
      <point x="145" y="-55"/>
      <point x="145" y="-55"/>
      <point x="145" y="-54.75" type="curve"/>
      <point x="145" y="-45.25" type="line"/>
      <point x="145" y="-45"/>
      <point x="145" y="-45"/>
      <point x="145.25" y="-45" type="curve"/>
    </contour>
    <contour>
      <point x="445.25" y="55" type="line"/>
      <point x="454.75" y="55" type="line"/>
      <point x="455" y="55"/>
      <point x="455" y="55"/>
      <point x="455" y="54.75" type="curve"/>
      <point x="455" y="45.25" type="line"/>
      <point x="455" y="45"/>
      <point x="455" y="45"/>
      <point x="454.75" y="45" type="curve"/>
      <point x="445.25" y="45" type="line"/>
      <point x="445" y="45"/>
      <point x="445" y="45"/>
      <point x="445" y="45.25" type="curve"/>
      <point x="445" y="54.75" type="line"/>
      <point x="445" y="55"/>
      <point x="445" y="55"/>
      <point x="445.25" y="55" type="curve"/>
    </contour>
    <contour>
      <point x="445.25" y="155" type="line"/>
      <point x="454.75" y="155" type="line"/>
      <point x="455" y="155"/>
      <point x="455" y="155"/>
      <point x="455" y="154.75" type="curve"/>
      <point x="455" y="145.25" type="line"/>
      <point x="455" y="145"/>
      <point x="455" y="145"/>
      <point x="454.75" y="145" type="curve"/>
      <point x="445.25" y="145" type="line"/>
      <point x="445" y="145"/>
      <point x="445" y="145"/>
      <point x="445" y="145.25" type="curve"/>
      <point x="445" y="154.75" type="line"/>
      <point x="445" y="155"/>
      <point x="445" y="155"/>
      <point x="445.25" y="155" type="curve"/>
    </contour>
    <contour>
      <point x="345.25" y="155" type="line"/>
      <point x="354.75" y="155" type="line"/>
      <point x="355" y="155"/>
      <point x="355" y="155"/>
      <point x="355" y="154.75" type="curve"/>
      <point x="355" y="145.25" type="line"/>
      <point x="355" y="145"/>
      <point x="355" y="145"/>
      <point x="354.75" y="145" type="curve"/>
      <point x="345.25" y="145" type="line"/>
      <point x="345" y="145"/>
      <point x="345" y="145"/>
      <point x="345" y="145.25" type="curve"/>
      <point x="345" y="154.75" type="line"/>
      <point x="345" y="155"/>
      <point x="345" y="155"/>
      <point x="345.25" y="155" type="curve"/>
    </contour>
    <contour>
      <point x="245.25" y="155" type="line"/>
      <point x="254.75" y="155" type="line"/>
      <point x="255" y="155"/>
      <point x="255" y="155"/>
      <point x="255" y="154.75" type="curve"/>
      <point x="255" y="145.25" type="line"/>
      <point x="255" y="145"/>
      <point x="255" y="145"/>
      <point x="254.75" y="145" type="curve"/>
      <point x="245.25" y="145" type="line"/>
      <point x="245" y="145"/>
      <point x="245" y="145"/>
      <point x="245" y="145.25" type="curve"/>
      <point x="245" y="154.75" type="line"/>
      <point x="245" y="155"/>
      <point x="245" y="155"/>
      <point x="245.25" y="155" type="curve"/>
    </contour>
    <contour>
      <point x="445.25" y="255" type="line"/>
      <point x="454.75" y="255" type="line"/>
      <point x="455" y="255"/>
      <point x="455" y="255"/>
      <point x="455" y="254.75" type="curve"/>
      <point x="455" y="245.25" type="line"/>
      <point x="455" y="245"/>
      <point x="455" y="245"/>
      <point x="454.75" y="245" type="curve"/>
      <point x="445.25" y="245" type="line"/>
      <point x="445" y="245"/>
      <point x="445" y="245"/>
      <point x="445" y="245.25" type="curve"/>
      <point x="445" y="254.75" type="line"/>
      <point x="445" y="255"/>
      <point x="445" y="255"/>
      <point x="445.25" y="255" type="curve"/>
    </contour>
    <contour>
      <point x="145.25" y="255" type="line"/>
      <point x="154.75" y="255" type="line"/>
      <point x="155" y="255"/>
      <point x="155" y="255"/>
      <point x="155" y="254.75" type="curve"/>
      <point x="155" y="245.25" type="line"/>
      <point x="155" y="245"/>
      <point x="155" y="245"/>
      <point x="154.75" y="245" type="curve"/>
      <point x="145.25" y="245" type="line"/>
      <point x="145" y="245"/>
      <point x="145" y="245"/>
      <point x="145" y="245.25" type="curve"/>
      <point x="145" y="254.75" type="line"/>
      <point x="145" y="255"/>
      <point x="145" y="255"/>
      <point x="145.25" y="255" type="curve"/>
    </contour>
    <contour>
      <point x="345.25" y="355" type="line"/>
      <point x="354.75" y="355" type="line"/>
      <point x="355" y="355"/>
      <point x="355" y="355"/>
      <point x="355" y="354.75" type="curve"/>
      <point x="355" y="345.25" type="line"/>
      <point x="355" y="345"/>
      <point x="355" y="345"/>
      <point x="354.75" y="345" type="curve"/>
      <point x="345.25" y="345" type="line"/>
      <point x="345" y="345"/>
      <point x="345" y="345"/>
      <point x="345" y="345.25" type="curve"/>
      <point x="345" y="354.75" type="line"/>
      <point x="345" y="355"/>
      <point x="345" y="355"/>
      <point x="345.25" y="355" type="curve"/>
    </contour>
    <contour>
      <point x="45.25" y="355" type="line"/>
      <point x="54.75" y="355" type="line"/>
      <point x="55" y="355"/>
      <point x="55" y="355"/>
      <point x="55" y="354.75" type="curve"/>
      <point x="55" y="345.25" type="line"/>
      <point x="55" y="345"/>
      <point x="55" y="345"/>
      <point x="54.75" y="345" type="curve"/>
      <point x="45.25" y="345" type="line"/>
      <point x="45" y="345"/>
      <point x="45" y="345"/>
      <point x="45" y="345.25" type="curve"/>
      <point x="45" y="354.75" type="line"/>
      <point x="45" y="355"/>
      <point x="45" y="355"/>
      <point x="45.25" y="355" type="curve"/>
    </contour>
    <contour>
      <point x="245.25" y="455" type="line"/>
      <point x="254.75" y="455" type="line"/>
      <point x="255" y="455"/>
      <point x="255" y="455"/>
      <point x="255" y="454.75" type="curve"/>
      <point x="255" y="445.25" type="line"/>
      <point x="255" y="445"/>
      <point x="255" y="445"/>
      <point x="254.75" y="445" type="curve"/>
      <point x="245.25" y="445" type="line"/>
      <point x="245" y="445"/>
      <point x="245" y="445"/>
      <point x="245" y="445.25" type="curve"/>
      <point x="245" y="454.75" type="line"/>
      <point x="245" y="455"/>
      <point x="245" y="455"/>
      <point x="245.25" y="455" type="curve"/>
    </contour>
    <contour>
      <point x="145.25" y="455" type="line"/>
      <point x="154.75" y="455" type="line"/>
      <point x="155" y="455"/>
      <point x="155" y="455"/>
      <point x="155" y="454.75" type="curve"/>
      <point x="155" y="445.25" type="line"/>
      <point x="155" y="445"/>
      <point x="155" y="445"/>
      <point x="154.75" y="445" type="curve"/>
      <point x="145.25" y="445" type="line"/>
      <point x="145" y="445"/>
      <point x="145" y="445"/>
      <point x="145" y="445.25" type="curve"/>
      <point x="145" y="454.75" type="line"/>
      <point x="145" y="455"/>
      <point x="145" y="455"/>
      <point x="145.25" y="455" type="curve"/>
    </contour>
    <contour>
      <point x="45.25" y="455" type="line"/>
      <point x="54.75" y="455" type="line"/>
      <point x="55" y="455"/>
      <point x="55" y="455"/>
      <point x="55" y="454.75" type="curve"/>
      <point x="55" y="445.25" type="line"/>
      <point x="55" y="445"/>
      <point x="55" y="445"/>
      <point x="54.75" y="445" type="curve"/>
      <point x="45.25" y="445" type="line"/>
      <point x="45" y="445"/>
      <point x="45" y="445"/>
      <point x="45" y="445.25" type="curve"/>
      <point x="45" y="454.75" type="line"/>
      <point x="45" y="455"/>
      <point x="45" y="455"/>
      <point x="45.25" y="455" type="curve"/>
    </contour>
    <contour>
      <point x="45.25" y="555" type="line"/>
      <point x="54.75" y="555" type="line"/>
      <point x="55" y="555"/>
      <point x="55" y="555"/>
      <point x="55" y="554.75" type="curve"/>
      <point x="55" y="545.25" type="line"/>
      <point x="55" y="545"/>
      <point x="55" y="545"/>
      <point x="54.75" y="545" type="curve"/>
      <point x="45.25" y="545" type="line"/>
      <point x="45" y="545"/>
      <point x="45" y="545"/>
      <point x="45" y="545.25" type="curve"/>
      <point x="45" y="554.75" type="line"/>
      <point x="45" y="555"/>
      <point x="45" y="555"/>
      <point x="45.25" y="555" type="curve"/>
    </contour>
    <contour>
      <point x="345.25" y="655" type="line"/>
      <point x="354.75" y="655" type="line"/>
      <point x="355" y="655"/>
      <point x="355" y="655"/>
      <point x="355" y="654.75" type="curve"/>
      <point x="355" y="645.25" type="line"/>
      <point x="355" y="645"/>
      <point x="355" y="645"/>
      <point x="354.75" y="645" type="curve"/>
      <point x="345.25" y="645" type="line"/>
      <point x="345" y="645"/>
      <point x="345" y="645"/>
      <point x="345" y="645.25" type="curve"/>
      <point x="345" y="654.75" type="line"/>
      <point x="345" y="655"/>
      <point x="345" y="655"/>
      <point x="345.25" y="655" type="curve"/>
    </contour>
    <contour>
      <point x="245.25" y="655" type="line"/>
      <point x="254.75" y="655" type="line"/>
      <point x="255" y="655"/>
      <point x="255" y="655"/>
      <point x="255" y="654.75" type="curve"/>
      <point x="255" y="645.25" type="line"/>
      <point x="255" y="645"/>
      <point x="255" y="645"/>
      <point x="254.75" y="645" type="curve"/>
      <point x="245.25" y="645" type="line"/>
      <point x="245" y="645"/>
      <point x="245" y="645"/>
      <point x="245" y="645.25" type="curve"/>
      <point x="245" y="654.75" type="line"/>
      <point x="245" y="655"/>
      <point x="245" y="655"/>
      <point x="245.25" y="655" type="curve"/>
    </contour>
    <contour>
      <point x="145.25" y="655" type="line"/>
      <point x="154.75" y="655" type="line"/>
      <point x="155" y="655"/>
      <point x="155" y="655"/>
      <point x="155" y="654.75" type="curve"/>
      <point x="155" y="645.25" type="line"/>
      <point x="155" y="645"/>
      <point x="155" y="645"/>
      <point x="154.75" y="645" type="curve"/>
      <point x="145.25" y="645" type="line"/>
      <point x="145" y="645"/>
      <point x="145" y="645"/>
      <point x="145" y="645.25" type="curve"/>
      <point x="145" y="654.75" type="line"/>
      <point x="145" y="655"/>
      <point x="145" y="655"/>
      <point x="145.25" y="655" type="curve"/>
    </contour>
  </outline>
</glyph>
<glyph name="ordfeminine" format="2">
  <advance width="600"/>
  <unicode hex="00AA"/>
  <outline>
    <contour>
      <point x="445.25" y="155" type="line"/>
      <point x="454.75" y="155" type="line"/>
      <point x="455" y="155"/>
      <point x="455" y="155"/>
      <point x="455" y="154.75" type="curve"/>
      <point x="455" y="145.25" type="line"/>
      <point x="455" y="145"/>
      <point x="455" y="145"/>
      <point x="454.75" y="145" type="curve"/>
      <point x="445.25" y="145" type="line"/>
      <point x="445" y="145"/>
      <point x="445" y="145"/>
      <point x="445" y="145.25" type="curve"/>
      <point x="445" y="154.75" type="line"/>
      <point x="445" y="155"/>
      <point x="445" y="155"/>
      <point x="445.25" y="155" type="curve"/>
    </contour>
    <contour>
      <point x="345.25" y="155" type="line"/>
      <point x="354.75" y="155" type="line"/>
      <point x="355" y="155"/>
      <point x="355" y="155"/>
      <point x="355" y="154.75" type="curve"/>
      <point x="355" y="145.25" type="line"/>
      <point x="355" y="145"/>
      <point x="355" y="145"/>
      <point x="354.75" y="145" type="curve"/>
      <point x="345.25" y="145" type="line"/>
      <point x="345" y="145"/>
      <point x="345" y="145"/>
      <point x="345" y="145.25" type="curve"/>
      <point x="345" y="154.75" type="line"/>
      <point x="345" y="155"/>
      <point x="345" y="155"/>
      <point x="345.25" y="155" type="curve"/>
    </contour>
    <contour>
      <point x="245.25" y="155" type="line"/>
      <point x="254.75" y="155" type="line"/>
      <point x="255" y="155"/>
      <point x="255" y="155"/>
      <point x="255" y="154.75" type="curve"/>
      <point x="255" y="145.25" type="line"/>
      <point x="255" y="145"/>
      <point x="255" y="145"/>
      <point x="254.75" y="145" type="curve"/>
      <point x="245.25" y="145" type="line"/>
      <point x="245" y="145"/>
      <point x="245" y="145"/>
      <point x="245" y="145.25" type="curve"/>
      <point x="245" y="154.75" type="line"/>
      <point x="245" y="155"/>
      <point x="245" y="155"/>
      <point x="245.25" y="155" type="curve"/>
    </contour>
    <contour>
      <point x="145.25" y="155" type="line"/>
      <point x="154.75" y="155" type="line"/>
      <point x="155" y="155"/>
      <point x="155" y="155"/>
      <point x="155" y="154.75" type="curve"/>
      <point x="155" y="145.25" type="line"/>
      <point x="155" y="145"/>
      <point x="155" y="145"/>
      <point x="154.75" y="145" type="curve"/>
      <point x="145.25" y="145" type="line"/>
      <point x="145" y="145"/>
      <point x="145" y="145"/>
      <point x="145" y="145.25" type="curve"/>
      <point x="145" y="154.75" type="line"/>
      <point x="145" y="155"/>
      <point x="145" y="155"/>
      <point x="145.25" y="155" type="curve"/>
    </contour>
    <contour>
      <point x="445.25" y="355" type="line"/>
      <point x="454.75" y="355" type="line"/>
      <point x="455" y="355"/>
      <point x="455" y="355"/>
      <point x="455" y="354.75" type="curve"/>
      <point x="455" y="345.25" type="line"/>
      <point x="455" y="345"/>
      <point x="455" y="345"/>
      <point x="454.75" y="345" type="curve"/>
      <point x="445.25" y="345" type="line"/>
      <point x="445" y="345"/>
      <point x="445" y="345"/>
      <point x="445" y="345.25" type="curve"/>
      <point x="445" y="354.75" type="line"/>
      <point x="445" y="355"/>
      <point x="445" y="355"/>
      <point x="445.25" y="355" type="curve"/>
    </contour>
    <contour>
      <point x="245.25" y="355" type="line"/>
      <point x="254.75" y="355" type="line"/>
      <point x="255" y="355"/>
      <point x="255" y="355"/>
      <point x="255" y="354.75" type="curve"/>
      <point x="255" y="345.25" type="line"/>
      <point x="255" y="345"/>
      <point x="255" y="345"/>
      <point x="254.75" y="345" type="curve"/>
      <point x="245.25" y="345" type="line"/>
      <point x="245" y="345"/>
      <point x="245" y="345"/>
      <point x="245" y="345.25" type="curve"/>
      <point x="245" y="354.75" type="line"/>
      <point x="245" y="355"/>
      <point x="245" y="355"/>
      <point x="245.25" y="355" type="curve"/>
    </contour>
    <contour>
      <point x="445.25" y="455" type="line"/>
      <point x="454.75" y="455" type="line"/>
      <point x="455" y="455"/>
      <point x="455" y="455"/>
      <point x="455" y="454.75" type="curve"/>
      <point x="455" y="445.25" type="line"/>
      <point x="455" y="445"/>
      <point x="455" y="445"/>
      <point x="454.75" y="445" type="curve"/>
      <point x="445.25" y="445" type="line"/>
      <point x="445" y="445"/>
      <point x="445" y="445"/>
      <point x="445" y="445.25" type="curve"/>
      <point x="445" y="454.75" type="line"/>
      <point x="445" y="455"/>
      <point x="445" y="455"/>
      <point x="445.25" y="455" type="curve"/>
    </contour>
    <contour>
      <point x="345.25" y="455" type="line"/>
      <point x="354.75" y="455" type="line"/>
      <point x="355" y="455"/>
      <point x="355" y="455"/>
      <point x="355" y="454.75" type="curve"/>
      <point x="355" y="445.25" type="line"/>
      <point x="355" y="445"/>
      <point x="355" y="445"/>
      <point x="354.75" y="445" type="curve"/>
      <point x="345.25" y="445" type="line"/>
      <point x="345" y="445"/>
      <point x="345" y="445"/>
      <point x="345" y="445.25" type="curve"/>
      <point x="345" y="454.75" type="line"/>
      <point x="345" y="455"/>
      <point x="345" y="455"/>
      <point x="345.25" y="455" type="curve"/>
    </contour>
    <contour>
      <point x="145.25" y="455" type="line"/>
      <point x="154.75" y="455" type="line"/>
      <point x="155" y="455"/>
      <point x="155" y="455"/>
      <point x="155" y="454.75" type="curve"/>
      <point x="155" y="445.25" type="line"/>
      <point x="155" y="445"/>
      <point x="155" y="445"/>
      <point x="154.75" y="445" type="curve"/>
      <point x="145.25" y="445" type="line"/>
      <point x="145" y="445"/>
      <point x="145" y="445"/>
      <point x="145" y="445.25" type="curve"/>
      <point x="145" y="454.75" type="line"/>
      <point x="145" y="455"/>
      <point x="145" y="455"/>
      <point x="145.25" y="455" type="curve"/>
    </contour>
    <contour>
      <point x="445.25" y="555" type="line"/>
      <point x="454.75" y="555" type="line"/>
      <point x="455" y="555"/>
      <point x="455" y="555"/>
      <point x="455" y="554.75" type="curve"/>
      <point x="455" y="545.25" type="line"/>
      <point x="455" y="545"/>
      <point x="455" y="545"/>
      <point x="454.75" y="545" type="curve"/>
      <point x="445.25" y="545" type="line"/>
      <point x="445" y="545"/>
      <point x="445" y="545"/>
      <point x="445" y="545.25" type="curve"/>
      <point x="445" y="554.75" type="line"/>
      <point x="445" y="555"/>
      <point x="445" y="555"/>
      <point x="445.25" y="555" type="curve"/>
    </contour>
    <contour>
      <point x="145.25" y="555" type="line"/>
      <point x="154.75" y="555" type="line"/>
      <point x="155" y="555"/>
      <point x="155" y="555"/>
      <point x="155" y="554.75" type="curve"/>
      <point x="155" y="545.25" type="line"/>
      <point x="155" y="545"/>
      <point x="155" y="545"/>
      <point x="154.75" y="545" type="curve"/>
      <point x="145.25" y="545" type="line"/>
      <point x="145" y="545"/>
      <point x="145" y="545"/>
      <point x="145" y="545.25" type="curve"/>
      <point x="145" y="554.75" type="line"/>
      <point x="145" y="555"/>
      <point x="145" y="555"/>
      <point x="145.25" y="555" type="curve"/>
    </contour>
    <contour>
      <point x="445.25" y="655" type="line"/>
      <point x="454.75" y="655" type="line"/>
      <point x="455" y="655"/>
      <point x="455" y="655"/>
      <point x="455" y="654.75" type="curve"/>
      <point x="455" y="645.25" type="line"/>
      <point x="455" y="645"/>
      <point x="455" y="645"/>
      <point x="454.75" y="645" type="curve"/>
      <point x="445.25" y="645" type="line"/>
      <point x="445" y="645"/>
      <point x="445" y="645"/>
      <point x="445" y="645.25" type="curve"/>
      <point x="445" y="654.75" type="line"/>
      <point x="445" y="655"/>
      <point x="445" y="655"/>
      <point x="445.25" y="655" type="curve"/>
    </contour>
    <contour>
      <point x="345.25" y="655" type="line"/>
      <point x="354.75" y="655" type="line"/>
      <point x="355" y="655"/>
      <point x="355" y="655"/>
      <point x="355" y="654.75" type="curve"/>
      <point x="355" y="645.25" type="line"/>
      <point x="355" y="645"/>
      <point x="355" y="645"/>
      <point x="354.75" y="645" type="curve"/>
      <point x="345.25" y="645" type="line"/>
      <point x="345" y="645"/>
      <point x="345" y="645"/>
      <point x="345" y="645.25" type="curve"/>
      <point x="345" y="654.75" type="line"/>
      <point x="345" y="655"/>
      <point x="345" y="655"/>
      <point x="345.25" y="655" type="curve"/>
    </contour>
    <contour>
      <point x="245.25" y="655" type="line"/>
      <point x="254.75" y="655" type="line"/>
      <point x="255" y="655"/>
      <point x="255" y="655"/>
      <point x="255" y="654.75" type="curve"/>
      <point x="255" y="645.25" type="line"/>
      <point x="255" y="645"/>
      <point x="255" y="645"/>
      <point x="254.75" y="645" type="curve"/>
      <point x="245.25" y="645" type="line"/>
      <point x="245" y="645"/>
      <point x="245" y="645"/>
      <point x="245" y="645.25" type="curve"/>
      <point x="245" y="654.75" type="line"/>
      <point x="245" y="655"/>
      <point x="245" y="655"/>
      <point x="245.25" y="655" type="curve"/>
    </contour>
  </outline>
</glyph>
<glyph name="guillemotleft" format="2">
  <advance width="600"/>
  <unicode hex="00AB"/>
  <outline>
    <contour>
      <point x="545.25" y="55" type="line"/>
      <point x="554.75" y="55" type="line"/>
      <point x="555" y="55"/>
      <point x="555" y="55"/>
      <point x="555" y="54.75" type="curve"/>
      <point x="555" y="45.25" type="line"/>
      <point x="555" y="45"/>
      <point x="555" y="45"/>
      <point x="554.75" y="45" type="curve"/>
      <point x="545.25" y="45" type="line"/>
      <point x="545" y="45"/>
      <point x="545" y="45"/>
      <point x="545" y="45.25" type="curve"/>
      <point x="545" y="54.75" type="line"/>
      <point x="545" y="55"/>
      <point x="545" y="55"/>
      <point x="545.25" y="55" type="curve"/>
    </contour>
    <contour>
      <point x="245.25" y="55" type="line"/>
      <point x="254.75" y="55" type="line"/>
      <point x="255" y="55"/>
      <point x="255" y="55"/>
      <point x="255" y="54.75" type="curve"/>
      <point x="255" y="45.25" type="line"/>
      <point x="255" y="45"/>
      <point x="255" y="45"/>
      <point x="254.75" y="45" type="curve"/>
      <point x="245.25" y="45" type="line"/>
      <point x="245" y="45"/>
      <point x="245" y="45"/>
      <point x="245" y="45.25" type="curve"/>
      <point x="245" y="54.75" type="line"/>
      <point x="245" y="55"/>
      <point x="245" y="55"/>
      <point x="245.25" y="55" type="curve"/>
    </contour>
    <contour>
      <point x="445.25" y="155" type="line"/>
      <point x="454.75" y="155" type="line"/>
      <point x="455" y="155"/>
      <point x="455" y="155"/>
      <point x="455" y="154.75" type="curve"/>
      <point x="455" y="145.25" type="line"/>
      <point x="455" y="145"/>
      <point x="455" y="145"/>
      <point x="454.75" y="145" type="curve"/>
      <point x="445.25" y="145" type="line"/>
      <point x="445" y="145"/>
      <point x="445" y="145"/>
      <point x="445" y="145.25" type="curve"/>
      <point x="445" y="154.75" type="line"/>
      <point x="445" y="155"/>
      <point x="445" y="155"/>
      <point x="445.25" y="155" type="curve"/>
    </contour>
    <contour>
      <point x="145.25" y="155" type="line"/>
      <point x="154.75" y="155" type="line"/>
      <point x="155" y="155"/>
      <point x="155" y="155"/>
      <point x="155" y="154.75" type="curve"/>
      <point x="155" y="145.25" type="line"/>
      <point x="155" y="145"/>
      <point x="155" y="145"/>
      <point x="154.75" y="145" type="curve"/>
      <point x="145.25" y="145" type="line"/>
      <point x="145" y="145"/>
      <point x="145" y="145"/>
      <point x="145" y="145.25" type="curve"/>
      <point x="145" y="154.75" type="line"/>
      <point x="145" y="155"/>
      <point x="145" y="155"/>
      <point x="145.25" y="155" type="curve"/>
    </contour>
    <contour>
      <point x="345.25" y="255" type="line"/>
      <point x="354.75" y="255" type="line"/>
      <point x="355" y="255"/>
      <point x="355" y="255"/>
      <point x="355" y="254.75" type="curve"/>
      <point x="355" y="245.25" type="line"/>
      <point x="355" y="245"/>
      <point x="355" y="245"/>
      <point x="354.75" y="245" type="curve"/>
      <point x="345.25" y="245" type="line"/>
      <point x="345" y="245"/>
      <point x="345" y="245"/>
      <point x="345" y="245.25" type="curve"/>
      <point x="345" y="254.75" type="line"/>
      <point x="345" y="255"/>
      <point x="345" y="255"/>
      <point x="345.25" y="255" type="curve"/>
    </contour>
    <contour>
      <point x="45.25" y="255" type="line"/>
      <point x="54.75" y="255" type="line"/>
      <point x="55" y="255"/>
      <point x="55" y="255"/>
      <point x="55" y="254.75" type="curve"/>
      <point x="55" y="245.25" type="line"/>
      <point x="55" y="245"/>
      <point x="55" y="245"/>
      <point x="54.75" y="245" type="curve"/>
      <point x="45.25" y="245" type="line"/>
      <point x="45" y="245"/>
      <point x="45" y="245"/>
      <point x="45" y="245.25" type="curve"/>
      <point x="45" y="254.75" type="line"/>
      <point x="45" y="255"/>
      <point x="45" y="255"/>
      <point x="45.25" y="255" type="curve"/>
    </contour>
    <contour>
      <point x="445.25" y="355" type="line"/>
      <point x="454.75" y="355" type="line"/>
      <point x="455" y="355"/>
      <point x="455" y="355"/>
      <point x="455" y="354.75" type="curve"/>
      <point x="455" y="345.25" type="line"/>
      <point x="455" y="345"/>
      <point x="455" y="345"/>
      <point x="454.75" y="345" type="curve"/>
      <point x="445.25" y="345" type="line"/>
      <point x="445" y="345"/>
      <point x="445" y="345"/>
      <point x="445" y="345.25" type="curve"/>
      <point x="445" y="354.75" type="line"/>
      <point x="445" y="355"/>
      <point x="445" y="355"/>
      <point x="445.25" y="355" type="curve"/>
    </contour>
    <contour>
      <point x="145.25" y="355" type="line"/>
      <point x="154.75" y="355" type="line"/>
      <point x="155" y="355"/>
      <point x="155" y="355"/>
      <point x="155" y="354.75" type="curve"/>
      <point x="155" y="345.25" type="line"/>
      <point x="155" y="345"/>
      <point x="155" y="345"/>
      <point x="154.75" y="345" type="curve"/>
      <point x="145.25" y="345" type="line"/>
      <point x="145" y="345"/>
      <point x="145" y="345"/>
      <point x="145" y="345.25" type="curve"/>
      <point x="145" y="354.75" type="line"/>
      <point x="145" y="355"/>
      <point x="145" y="355"/>
      <point x="145.25" y="355" type="curve"/>
    </contour>
    <contour>
      <point x="545.25" y="455" type="line"/>
      <point x="554.75" y="455" type="line"/>
      <point x="555" y="455"/>
      <point x="555" y="455"/>
      <point x="555" y="454.75" type="curve"/>
      <point x="555" y="445.25" type="line"/>
      <point x="555" y="445"/>
      <point x="555" y="445"/>
      <point x="554.75" y="445" type="curve"/>
      <point x="545.25" y="445" type="line"/>
      <point x="545" y="445"/>
      <point x="545" y="445"/>
      <point x="545" y="445.25" type="curve"/>
      <point x="545" y="454.75" type="line"/>
      <point x="545" y="455"/>
      <point x="545" y="455"/>
      <point x="545.25" y="455" type="curve"/>
    </contour>
    <contour>
      <point x="245.25" y="455" type="line"/>
      <point x="254.75" y="455" type="line"/>
      <point x="255" y="455"/>
      <point x="255" y="455"/>
      <point x="255" y="454.75" type="curve"/>
      <point x="255" y="445.25" type="line"/>
      <point x="255" y="445"/>
      <point x="255" y="445"/>
      <point x="254.75" y="445" type="curve"/>
      <point x="245.25" y="445" type="line"/>
      <point x="245" y="445"/>
      <point x="245" y="445"/>
      <point x="245" y="445.25" type="curve"/>
      <point x="245" y="454.75" type="line"/>
      <point x="245" y="455"/>
      <point x="245" y="455"/>
      <point x="245.25" y="455" type="curve"/>
    </contour>
  </outline>
</glyph>
<glyph name="macron" format="2">
  <advance width="600"/>
  <unicode hex="00AF"/>
  <outline>
    <contour>
      <point x="445.25" y="755" type="line"/>
      <point x="454.75" y="755" type="line"/>
      <point x="455" y="755"/>
      <point x="455" y="755"/>
      <point x="455" y="754.75" type="curve"/>
      <point x="455" y="745.25" type="line"/>
      <point x="455" y="745"/>
      <point x="455" y="745"/>
      <point x="454.75" y="745" type="curve"/>
      <point x="445.25" y="745" type="line"/>
      <point x="445" y="745"/>
      <point x="445" y="745"/>
      <point x="445" y="745.25" type="curve"/>
      <point x="445" y="754.75" type="line"/>
      <point x="445" y="755"/>
      <point x="445" y="755"/>
      <point x="445.25" y="755" type="curve"/>
    </contour>
    <contour>
      <point x="345.25" y="755" type="line"/>
      <point x="354.75" y="755" type="line"/>
      <point x="355" y="755"/>
      <point x="355" y="755"/>
      <point x="355" y="754.75" type="curve"/>
      <point x="355" y="745.25" type="line"/>
      <point x="355" y="745"/>
      <point x="355" y="745"/>
      <point x="354.75" y="745" type="curve"/>
      <point x="345.25" y="745" type="line"/>
      <point x="345" y="745"/>
      <point x="345" y="745"/>
      <point x="345" y="745.25" type="curve"/>
      <point x="345" y="754.75" type="line"/>
      <point x="345" y="755"/>
      <point x="345" y="755"/>
      <point x="345.25" y="755" type="curve"/>
    </contour>
    <contour>
      <point x="245.25" y="755" type="line"/>
      <point x="254.75" y="755" type="line"/>
      <point x="255" y="755"/>
      <point x="255" y="755"/>
      <point x="255" y="754.75" type="curve"/>
      <point x="255" y="745.25" type="line"/>
      <point x="255" y="745"/>
      <point x="255" y="745"/>
      <point x="254.75" y="745" type="curve"/>
      <point x="245.25" y="745" type="line"/>
      <point x="245" y="745"/>
      <point x="245" y="745"/>
      <point x="245" y="745.25" type="curve"/>
      <point x="245" y="754.75" type="line"/>
      <point x="245" y="755"/>
      <point x="245" y="755"/>
      <point x="245.25" y="755" type="curve"/>
    </contour>
    <contour>
      <point x="145.25" y="755" type="line"/>
      <point x="154.75" y="755" type="line"/>
      <point x="155" y="755"/>
      <point x="155" y="755"/>
      <point x="155" y="754.75" type="curve"/>
      <point x="155" y="745.25" type="line"/>
      <point x="155" y="745"/>
      <point x="155" y="745"/>
      <point x="154.75" y="745" type="curve"/>
      <point x="145.25" y="745" type="line"/>
      <point x="145" y="745"/>
      <point x="145" y="745"/>
      <point x="145" y="745.25" type="curve"/>
      <point x="145" y="754.75" type="line"/>
      <point x="145" y="755"/>
      <point x="145" y="755"/>
      <point x="145.25" y="755" type="curve"/>
    </contour>
    <contour>
      <point x="45.25" y="755" type="line"/>
      <point x="54.75" y="755" type="line"/>
      <point x="55" y="755"/>
      <point x="55" y="755"/>
      <point x="55" y="754.75" type="curve"/>
      <point x="55" y="745.25" type="line"/>
      <point x="55" y="745"/>
      <point x="55" y="745"/>
      <point x="54.75" y="745" type="curve"/>
      <point x="45.25" y="745" type="line"/>
      <point x="45" y="745"/>
      <point x="45" y="745"/>
      <point x="45" y="745.25" type="curve"/>
      <point x="45" y="754.75" type="line"/>
      <point x="45" y="755"/>
      <point x="45" y="755"/>
      <point x="45.25" y="755" type="curve"/>
    </contour>
  </outline>
</glyph>
<glyph name="acute" format="2">
  <advance width="600"/>
  <unicode hex="00B4"/>
  <outline>
    <contour>
      <point x="245.25" y="655" type="line"/>
      <point x="254.75" y="655" type="line"/>
      <point x="255" y="655"/>
      <point x="255" y="655"/>
      <point x="255" y="654.75" type="curve"/>
      <point x="255" y="645.25" type="line"/>
      <point x="255" y="645"/>
      <point x="255" y="645"/>
      <point x="254.75" y="645" type="curve"/>
      <point x="245.25" y="645" type="line"/>
      <point x="245" y="645"/>
      <point x="245" y="645"/>
      <point x="245" y="645.25" type="curve"/>
      <point x="245" y="654.75" type="line"/>
      <point x="245" y="655"/>
      <point x="245" y="655"/>
      <point x="245.25" y="655" type="curve"/>
    </contour>
    <contour>
      <point x="345.25" y="755" type="line"/>
      <point x="354.75" y="755" type="line"/>
      <point x="355" y="755"/>
      <point x="355" y="755"/>
      <point x="355" y="754.75" type="curve"/>
      <point x="355" y="745.25" type="line"/>
      <point x="355" y="745"/>
      <point x="355" y="745"/>
      <point x="354.75" y="745" type="curve"/>
      <point x="345.25" y="745" type="line"/>
      <point x="345" y="745"/>
      <point x="345" y="745"/>
      <point x="345" y="745.25" type="curve"/>
      <point x="345" y="754.75" type="line"/>
      <point x="345" y="755"/>
      <point x="345" y="755"/>
      <point x="345.25" y="755" type="curve"/>
    </contour>
  </outline>
</glyph>
<glyph name="periodcentered" format="2">
  <advance width="600"/>
  <unicode hex="00B7"/>
  <outline>
    <contour>
      <point x="245.25" y="355" type="line"/>
      <point x="254.75" y="355" type="line"/>
      <point x="255" y="355"/>
      <point x="255" y="355"/>
      <point x="255" y="354.75" type="curve"/>
      <point x="255" y="345.25" type="line"/>
      <point x="255" y="345"/>
      <point x="255" y="345"/>
      <point x="254.75" y="345" type="curve"/>
      <point x="245.25" y="345" type="line"/>
      <point x="245" y="345"/>
      <point x="245" y="345"/>
      <point x="245" y="345.25" type="curve"/>
      <point x="245" y="354.75" type="line"/>
      <point x="245" y="355"/>
      <point x="245" y="355"/>
      <point x="245.25" y="355" type="curve"/>
    </contour>
  </outline>
</glyph>
<glyph name="ncaron" format="2">
  <advance width="600"/>
  <unicode hex="0148"/>
  <outline>
    <contour>
      <point x="445.25" y="55" type="line"/>
      <point x="454.75" y="55" type="line"/>
      <point x="455" y="55"/>
      <point x="455" y="55"/>
      <point x="455" y="54.75" type="curve"/>
      <point x="455" y="45.25" type="line"/>
      <point x="455" y="45"/>
      <point x="455" y="45"/>
      <point x="454.75" y="45" type="curve"/>
      <point x="445.25" y="45" type="line"/>
      <point x="445" y="45"/>
      <point x="445" y="45"/>
      <point x="445" y="45.25" type="curve"/>
      <point x="445" y="54.75" type="line"/>
      <point x="445" y="55"/>
      <point x="445" y="55"/>
      <point x="445.25" y="55" type="curve"/>
    </contour>
    <contour>
      <point x="45.25" y="55" type="line"/>
      <point x="54.75" y="55" type="line"/>
      <point x="55" y="55"/>
      <point x="55" y="55"/>
      <point x="55" y="54.75" type="curve"/>
      <point x="55" y="45.25" type="line"/>
      <point x="55" y="45"/>
      <point x="55" y="45"/>
      <point x="54.75" y="45" type="curve"/>
      <point x="45.25" y="45" type="line"/>
      <point x="45" y="45"/>
      <point x="45" y="45"/>
      <point x="45" y="45.25" type="curve"/>
      <point x="45" y="54.75" type="line"/>
      <point x="45" y="55"/>
      <point x="45" y="55"/>
      <point x="45.25" y="55" type="curve"/>
    </contour>
    <contour>
      <point x="445.25" y="155" type="line"/>
      <point x="454.75" y="155" type="line"/>
      <point x="455" y="155"/>
      <point x="455" y="155"/>
      <point x="455" y="154.75" type="curve"/>
      <point x="455" y="145.25" type="line"/>
      <point x="455" y="145"/>
      <point x="455" y="145"/>
      <point x="454.75" y="145" type="curve"/>
      <point x="445.25" y="145" type="line"/>
      <point x="445" y="145"/>
      <point x="445" y="145"/>
      <point x="445" y="145.25" type="curve"/>
      <point x="445" y="154.75" type="line"/>
      <point x="445" y="155"/>
      <point x="445" y="155"/>
      <point x="445.25" y="155" type="curve"/>
    </contour>
    <contour>
      <point x="45.25" y="155" type="line"/>
      <point x="54.75" y="155" type="line"/>
      <point x="55" y="155"/>
      <point x="55" y="155"/>
      <point x="55" y="154.75" type="curve"/>
      <point x="55" y="145.25" type="line"/>
      <point x="55" y="145"/>
      <point x="55" y="145"/>
      <point x="54.75" y="145" type="curve"/>
      <point x="45.25" y="145" type="line"/>
      <point x="45" y="145"/>
      <point x="45" y="145"/>
      <point x="45" y="145.25" type="curve"/>
      <point x="45" y="154.75" type="line"/>
      <point x="45" y="155"/>
      <point x="45" y="155"/>
      <point x="45.25" y="155" type="curve"/>
    </contour>
    <contour>
      <point x="445.25" y="255" type="line"/>
      <point x="454.75" y="255" type="line"/>
      <point x="455" y="255"/>
      <point x="455" y="255"/>
      <point x="455" y="254.75" type="curve"/>
      <point x="455" y="245.25" type="line"/>
      <point x="455" y="245"/>
      <point x="455" y="245"/>
      <point x="454.75" y="245" type="curve"/>
      <point x="445.25" y="245" type="line"/>
      <point x="445" y="245"/>
      <point x="445" y="245"/>
      <point x="445" y="245.25" type="curve"/>
      <point x="445" y="254.75" type="line"/>
      <point x="445" y="255"/>
      <point x="445" y="255"/>
      <point x="445.25" y="255" type="curve"/>
    </contour>
    <contour>
      <point x="45.25" y="255" type="line"/>
      <point x="54.75" y="255" type="line"/>
      <point x="55" y="255"/>
      <point x="55" y="255"/>
      <point x="55" y="254.75" type="curve"/>
      <point x="55" y="245.25" type="line"/>
      <point x="55" y="245"/>
      <point x="55" y="245"/>
      <point x="54.75" y="245" type="curve"/>
      <point x="45.25" y="245" type="line"/>
      <point x="45" y="245"/>
      <point x="45" y="245"/>
      <point x="45" y="245.25" type="curve"/>
      <point x="45" y="254.75" type="line"/>
      <point x="45" y="255"/>
      <point x="45" y="255"/>
      <point x="45.25" y="255" type="curve"/>
    </contour>
    <contour>
      <point x="445.25" y="355" type="line"/>
      <point x="454.75" y="355" type="line"/>
      <point x="455" y="355"/>
      <point x="455" y="355"/>
      <point x="455" y="354.75" type="curve"/>
      <point x="455" y="345.25" type="line"/>
      <point x="455" y="345"/>
      <point x="455" y="345"/>
      <point x="454.75" y="345" type="curve"/>
      <point x="445.25" y="345" type="line"/>
      <point x="445" y="345"/>
      <point x="445" y="345"/>
      <point x="445" y="345.25" type="curve"/>
      <point x="445" y="354.75" type="line"/>
      <point x="445" y="355"/>
      <point x="445" y="355"/>
      <point x="445.25" y="355" type="curve"/>
    </contour>
    <contour>
      <point x="145.25" y="355" type="line"/>
      <point x="154.75" y="355" type="line"/>
      <point x="155" y="355"/>
      <point x="155" y="355"/>
      <point x="155" y="354.75" type="curve"/>
      <point x="155" y="345.25" type="line"/>
      <point x="155" y="345"/>
      <point x="155" y="345"/>
      <point x="154.75" y="345" type="curve"/>
      <point x="145.25" y="345" type="line"/>
      <point x="145" y="345"/>
      <point x="145" y="345"/>
      <point x="145" y="345.25" type="curve"/>
      <point x="145" y="354.75" type="line"/>
      <point x="145" y="355"/>
      <point x="145" y="355"/>
      <point x="145.25" y="355" type="curve"/>
    </contour>
    <contour>
      <point x="45.25" y="355" type="line"/>
      <point x="54.75" y="355" type="line"/>
      <point x="55" y="355"/>
      <point x="55" y="355"/>
      <point x="55" y="354.75" type="curve"/>
      <point x="55" y="345.25" type="line"/>
      <point x="55" y="345"/>
      <point x="55" y="345"/>
      <point x="54.75" y="345" type="curve"/>
      <point x="45.25" y="345" type="line"/>
      <point x="45" y="345"/>
      <point x="45" y="345"/>
      <point x="45" y="345.25" type="curve"/>
      <point x="45" y="354.75" type="line"/>
      <point x="45" y="355"/>
      <point x="45" y="355"/>
      <point x="45.25" y="355" type="curve"/>
    </contour>
    <contour>
      <point x="345.25" y="455" type="line"/>
      <point x="354.75" y="455" type="line"/>
      <point x="355" y="455"/>
      <point x="355" y="455"/>
      <point x="355" y="454.75" type="curve"/>
      <point x="355" y="445.25" type="line"/>
      <point x="355" y="445"/>
      <point x="355" y="445"/>
      <point x="354.75" y="445" type="curve"/>
      <point x="345.25" y="445" type="line"/>
      <point x="345" y="445"/>
      <point x="345" y="445"/>
      <point x="345" y="445.25" type="curve"/>
      <point x="345" y="454.75" type="line"/>
      <point x="345" y="455"/>
      <point x="345" y="455"/>
      <point x="345.25" y="455" type="curve"/>
    </contour>
    <contour>
      <point x="245.25" y="455" type="line"/>
      <point x="254.75" y="455" type="line"/>
      <point x="255" y="455"/>
      <point x="255" y="455"/>
      <point x="255" y="454.75" type="curve"/>
      <point x="255" y="445.25" type="line"/>
      <point x="255" y="445"/>
      <point x="255" y="445"/>
      <point x="254.75" y="445" type="curve"/>
      <point x="245.25" y="445" type="line"/>
      <point x="245" y="445"/>
      <point x="245" y="445"/>
      <point x="245" y="445.25" type="curve"/>
      <point x="245" y="454.75" type="line"/>
      <point x="245" y="455"/>
      <point x="245" y="455"/>
      <point x="245.25" y="455" type="curve"/>
    </contour>
    <contour>
      <point x="45.25" y="455" type="line"/>
      <point x="54.75" y="455" type="line"/>
      <point x="55" y="455"/>
      <point x="55" y="455"/>
      <point x="55" y="454.75" type="curve"/>
      <point x="55" y="445.25" type="line"/>
      <point x="55" y="445"/>
      <point x="55" y="445"/>
      <point x="54.75" y="445" type="curve"/>
      <point x="45.25" y="445" type="line"/>
      <point x="45" y="445"/>
      <point x="45" y="445"/>
      <point x="45" y="445.25" type="curve"/>
      <point x="45" y="454.75" type="line"/>
      <point x="45" y="455"/>
      <point x="45" y="455"/>
      <point x="45.25" y="455" type="curve"/>
    </contour>
    <contour>
      <point x="245.25" y="655" type="line"/>
      <point x="254.75" y="655" type="line"/>
      <point x="255" y="655"/>
      <point x="255" y="655"/>
      <point x="255" y="654.75" type="curve"/>
      <point x="255" y="645.25" type="line"/>
      <point x="255" y="645"/>
      <point x="255" y="645"/>
      <point x="254.75" y="645" type="curve"/>
      <point x="245.25" y="645" type="line"/>
      <point x="245" y="645"/>
      <point x="245" y="645"/>
      <point x="245" y="645.25" type="curve"/>
      <point x="245" y="654.75" type="line"/>
      <point x="245" y="655"/>
      <point x="245" y="655"/>
      <point x="245.25" y="655" type="curve"/>
    </contour>
    <contour>
      <point x="345.25" y="755" type="line"/>
      <point x="354.75" y="755" type="line"/>
      <point x="355" y="755"/>
      <point x="355" y="755"/>
      <point x="355" y="754.75" type="curve"/>
      <point x="355" y="745.25" type="line"/>
      <point x="355" y="745"/>
      <point x="355" y="745"/>
      <point x="354.75" y="745" type="curve"/>
      <point x="345.25" y="745" type="line"/>
      <point x="345" y="745"/>
      <point x="345" y="745"/>
      <point x="345" y="745.25" type="curve"/>
      <point x="345" y="754.75" type="line"/>
      <point x="345" y="755"/>
      <point x="345" y="755"/>
      <point x="345.25" y="755" type="curve"/>
    </contour>
    <contour>
      <point x="145.25" y="755" type="line"/>
      <point x="154.75" y="755" type="line"/>
      <point x="155" y="755"/>
      <point x="155" y="755"/>
      <point x="155" y="754.75" type="curve"/>
      <point x="155" y="745.25" type="line"/>
      <point x="155" y="745"/>
      <point x="155" y="745"/>
      <point x="154.75" y="745" type="curve"/>
      <point x="145.25" y="745" type="line"/>
      <point x="145" y="745"/>
      <point x="145" y="745"/>
      <point x="145" y="745.25" type="curve"/>
      <point x="145" y="754.75" type="line"/>
      <point x="145" y="755"/>
      <point x="145" y="755"/>
      <point x="145.25" y="755" type="curve"/>
    </contour>
  </outline>
</glyph>
<glyph name="Uring" format="2">
  <advance width="600"/>
  <unicode hex="016E"/>
  <outline>
    <contour>
      <point x="345" y="55" type="line"/>
      <point x="355" y="55" type="line"/>
      <point x="355" y="55"/>
      <point x="355" y="55"/>
      <point x="355" y="55" type="curve"/>
      <point x="355" y="45" type="line"/>
      <point x="355" y="45"/>
      <point x="355" y="45"/>
      <point x="355" y="45" type="curve"/>
      <point x="345" y="45" type="line"/>
      <point x="345" y="45"/>
      <point x="345" y="45"/>
      <point x="345" y="45" type="curve"/>
      <point x="345" y="55" type="line"/>
      <point x="345" y="55"/>
      <point x="345" y="55"/>
      <point x="345" y="55" type="curve"/>
    </contour>
    <contour>
      <point x="245" y="55" type="line"/>
      <point x="255" y="55" type="line"/>
      <point x="255" y="55"/>
      <point x="255" y="55"/>
      <point x="255" y="55" type="curve"/>
      <point x="255" y="45" type="line"/>
      <point x="255" y="45"/>
      <point x="255" y="45"/>
      <point x="255" y="45" type="curve"/>
      <point x="245" y="45" type="line"/>
      <point x="245" y="45"/>
      <point x="245" y="45"/>
      <point x="245" y="45" type="curve"/>
      <point x="245" y="55" type="line"/>
      <point x="245" y="55"/>
      <point x="245" y="55"/>
      <point x="245" y="55" type="curve"/>
    </contour>
    <contour>
      <point x="145" y="55" type="line"/>
      <point x="155" y="55" type="line"/>
      <point x="155" y="55"/>
      <point x="155" y="55"/>
      <point x="155" y="55" type="curve"/>
      <point x="155" y="45" type="line"/>
      <point x="155" y="45"/>
      <point x="155" y="45"/>
      <point x="155" y="45" type="curve"/>
      <point x="145" y="45" type="line"/>
      <point x="145" y="45"/>
      <point x="145" y="45"/>
      <point x="145" y="45" type="curve"/>
      <point x="145" y="55" type="line"/>
      <point x="145" y="55"/>
      <point x="145" y="55"/>
      <point x="145" y="55" type="curve"/>
    </contour>
    <contour>
      <point x="445" y="155" type="line"/>
      <point x="455" y="155" type="line"/>
      <point x="455" y="155"/>
      <point x="455" y="155"/>
      <point x="455" y="155" type="curve"/>
      <point x="455" y="145" type="line"/>
      <point x="455" y="145"/>
      <point x="455" y="145"/>
      <point x="455" y="145" type="curve"/>
      <point x="445" y="145" type="line"/>
      <point x="445" y="145"/>
      <point x="445" y="145"/>
      <point x="445" y="145" type="curve"/>
      <point x="445" y="155" type="line"/>
      <point x="445" y="155"/>
      <point x="445" y="155"/>
      <point x="445" y="155" type="curve"/>
    </contour>
    <contour>
      <point x="45" y="155" type="line"/>
      <point x="55" y="155" type="line"/>
      <point x="55" y="155"/>
      <point x="55" y="155"/>
      <point x="55" y="155" type="curve"/>
      <point x="55" y="145" type="line"/>
      <point x="55" y="145"/>
      <point x="55" y="145"/>
      <point x="55" y="145" type="curve"/>
      <point x="45" y="145" type="line"/>
      <point x="45" y="145"/>
      <point x="45" y="145"/>
      <point x="45" y="145" type="curve"/>
      <point x="45" y="155" type="line"/>
      <point x="45" y="155"/>
      <point x="45" y="155"/>
      <point x="45" y="155" type="curve"/>
    </contour>
    <contour>
      <point x="445" y="255" type="line"/>
      <point x="455" y="255" type="line"/>
      <point x="455" y="255"/>
      <point x="455" y="255"/>
      <point x="455" y="255" type="curve"/>
      <point x="455" y="245" type="line"/>
      <point x="455" y="245"/>
      <point x="455" y="245"/>
      <point x="455" y="245" type="curve"/>
      <point x="445" y="245" type="line"/>
      <point x="445" y="245"/>
      <point x="445" y="245"/>
      <point x="445" y="245" type="curve"/>
      <point x="445" y="255" type="line"/>
      <point x="445" y="255"/>
      <point x="445" y="255"/>
      <point x="445" y="255" type="curve"/>
    </contour>
    <contour>
      <point x="45" y="255" type="line"/>
      <point x="55" y="255" type="line"/>
      <point x="55" y="255"/>
      <point x="55" y="255"/>
      <point x="55" y="255" type="curve"/>
      <point x="55" y="245" type="line"/>
      <point x="55" y="245"/>
      <point x="55" y="245"/>
      <point x="55" y="245" type="curve"/>
      <point x="45" y="245" type="line"/>
      <point x="45" y="245"/>
      <point x="45" y="245"/>
      <point x="45" y="245" type="curve"/>
      <point x="45" y="255" type="line"/>
      <point x="45" y="255"/>
      <point x="45" y="255"/>
      <point x="45" y="255" type="curve"/>
    </contour>
    <contour>
      <point x="445" y="355" type="line"/>
      <point x="455" y="355" type="line"/>
      <point x="455" y="355"/>
      <point x="455" y="355"/>
      <point x="455" y="355" type="curve"/>
      <point x="455" y="345" type="line"/>
      <point x="455" y="345"/>
      <point x="455" y="345"/>
      <point x="455" y="345" type="curve"/>
      <point x="445" y="345" type="line"/>
      <point x="445" y="345"/>
      <point x="445" y="345"/>
      <point x="445" y="345" type="curve"/>
      <point x="445" y="355" type="line"/>
      <point x="445" y="355"/>
      <point x="445" y="355"/>
      <point x="445" y="355" type="curve"/>
    </contour>
    <contour>
      <point x="45" y="355" type="line"/>
      <point x="55" y="355" type="line"/>
      <point x="55" y="355"/>
      <point x="55" y="355"/>
      <point x="55" y="355" type="curve"/>
      <point x="55" y="345" type="line"/>
      <point x="55" y="345"/>
      <point x="55" y="345"/>
      <point x="55" y="345" type="curve"/>
      <point x="45" y="345" type="line"/>
      <point x="45" y="345"/>
      <point x="45" y="345"/>
      <point x="45" y="345" type="curve"/>
      <point x="45" y="355" type="line"/>
      <point x="45" y="355"/>
      <point x="45" y="355"/>
      <point x="45" y="355" type="curve"/>
    </contour>
    <contour>
      <point x="445" y="455" type="line"/>
      <point x="455" y="455" type="line"/>
      <point x="455" y="455"/>
      <point x="455" y="455"/>
      <point x="455" y="455" type="curve"/>
      <point x="455" y="445" type="line"/>
      <point x="455" y="445"/>
      <point x="455" y="445"/>
      <point x="455" y="445" type="curve"/>
      <point x="445" y="445" type="line"/>
      <point x="445" y="445"/>
      <point x="445" y="445"/>
      <point x="445" y="445" type="curve"/>
      <point x="445" y="455" type="line"/>
      <point x="445" y="455"/>
      <point x="445" y="455"/>
      <point x="445" y="455" type="curve"/>
    </contour>
    <contour>
      <point x="45" y="455" type="line"/>
      <point x="55" y="455" type="line"/>
      <point x="55" y="455"/>
      <point x="55" y="455"/>
      <point x="55" y="455" type="curve"/>
      <point x="55" y="445" type="line"/>
      <point x="55" y="445"/>
      <point x="55" y="445"/>
      <point x="55" y="445" type="curve"/>
      <point x="45" y="445" type="line"/>
      <point x="45" y="445"/>
      <point x="45" y="445"/>
      <point x="45" y="445" type="curve"/>
      <point x="45" y="455" type="line"/>
      <point x="45" y="455"/>
      <point x="45" y="455"/>
      <point x="45" y="455" type="curve"/>
    </contour>
    <contour>
      <point x="445" y="555" type="line"/>
      <point x="455" y="555" type="line"/>
      <point x="455" y="555"/>
      <point x="455" y="555"/>
      <point x="455" y="555" type="curve"/>
      <point x="455" y="545" type="line"/>
      <point x="455" y="545"/>
      <point x="455" y="545"/>
      <point x="455" y="545" type="curve"/>
      <point x="445" y="545" type="line"/>
      <point x="445" y="545"/>
      <point x="445" y="545"/>
      <point x="445" y="545" type="curve"/>
      <point x="445" y="555" type="line"/>
      <point x="445" y="555"/>
      <point x="445" y="555"/>
      <point x="445" y="555" type="curve"/>
    </contour>
    <contour>
      <point x="245" y="555" type="line"/>
      <point x="255" y="555" type="line"/>
      <point x="255" y="555"/>
      <point x="255" y="555"/>
      <point x="255" y="555" type="curve"/>
      <point x="255" y="545" type="line"/>
      <point x="255" y="545"/>
      <point x="255" y="545"/>
      <point x="255" y="545" type="curve"/>
      <point x="245" y="545" type="line"/>
      <point x="245" y="545"/>
      <point x="245" y="545"/>
      <point x="245" y="545" type="curve"/>
      <point x="245" y="555" type="line"/>
      <point x="245" y="555"/>
      <point x="245" y="555"/>
      <point x="245" y="555" type="curve"/>
    </contour>
    <contour>
      <point x="45" y="555" type="line"/>
      <point x="55" y="555" type="line"/>
      <point x="55" y="555"/>
      <point x="55" y="555"/>
      <point x="55" y="555" type="curve"/>
      <point x="55" y="545" type="line"/>
      <point x="55" y="545"/>
      <point x="55" y="545"/>
      <point x="55" y="545" type="curve"/>
      <point x="45" y="545" type="line"/>
      <point x="45" y="545"/>
      <point x="45" y="545"/>
      <point x="45" y="545" type="curve"/>
      <point x="45" y="555" type="line"/>
      <point x="45" y="555"/>
      <point x="45" y="555"/>
      <point x="45" y="555" type="curve"/>
    </contour>
    <contour>
      <point x="345" y="655" type="line"/>
      <point x="355" y="655" type="line"/>
      <point x="355" y="655"/>
      <point x="355" y="655"/>
      <point x="355" y="655" type="curve"/>
      <point x="355" y="645" type="line"/>
      <point x="355" y="645"/>
      <point x="355" y="645"/>
      <point x="355" y="645" type="curve"/>
      <point x="345" y="645" type="line"/>
      <point x="345" y="645"/>
      <point x="345" y="645"/>
      <point x="345" y="645" type="curve"/>
      <point x="345" y="655" type="line"/>
      <point x="345" y="655"/>
      <point x="345" y="655"/>
      <point x="345" y="655" type="curve"/>
    </contour>
    <contour>
      <point x="145" y="655" type="line"/>
      <point x="155" y="655" type="line"/>
      <point x="155" y="655"/>
      <point x="155" y="655"/>
      <point x="155" y="655" type="curve"/>
      <point x="155" y="645" type="line"/>
      <point x="155" y="645"/>
      <point x="155" y="645"/>
      <point x="155" y="645" type="curve"/>
      <point x="145" y="645" type="line"/>
      <point x="145" y="645"/>
      <point x="145" y="645"/>
      <point x="145" y="645" type="curve"/>
      <point x="145" y="655" type="line"/>
      <point x="145" y="655"/>
      <point x="145" y="655"/>
      <point x="145" y="655" type="curve"/>
    </contour>
    <contour>
      <point x="245" y="755" type="line"/>
      <point x="255" y="755" type="line"/>
      <point x="255" y="755"/>
      <point x="255" y="755"/>
      <point x="255" y="755" type="curve"/>
      <point x="255" y="745" type="line"/>
      <point x="255" y="745"/>
      <point x="255" y="745"/>
      <point x="255" y="745" type="curve"/>
      <point x="245" y="745" type="line"/>
      <point x="245" y="745"/>
      <point x="245" y="745"/>
      <point x="245" y="745" type="curve"/>
      <point x="245" y="755" type="line"/>
      <point x="245" y="755"/>
      <point x="245" y="755"/>
      <point x="245" y="755" type="curve"/>
    </contour>
  </outline>
</glyph>
<glyph name="breve" format="2">
  <advance width="600"/>
  <unicode hex="02D8"/>
  <outline>
    <contour>
      <point x="345" y="655" type="line"/>
      <point x="355" y="655" type="line"/>
      <point x="355" y="655"/>
      <point x="355" y="655"/>
      <point x="355" y="655" type="curve"/>
      <point x="355" y="645" type="line"/>
      <point x="355" y="645"/>
      <point x="355" y="645"/>
      <point x="355" y="645" type="curve"/>
      <point x="345" y="645" type="line"/>
      <point x="345" y="645"/>
      <point x="345" y="645"/>
      <point x="345" y="645" type="curve"/>
      <point x="345" y="655" type="line"/>
      <point x="345" y="655"/>
      <point x="345" y="655"/>
      <point x="345" y="655" type="curve"/>
    </contour>
    <contour>
      <point x="245" y="655" type="line"/>
      <point x="255" y="655" type="line"/>
      <point x="255" y="655"/>
      <point x="255" y="655"/>
      <point x="255" y="655" type="curve"/>
      <point x="255" y="645" type="line"/>
      <point x="255" y="645"/>
      <point x="255" y="645"/>
      <point x="255" y="645" type="curve"/>
      <point x="245" y="645" type="line"/>
      <point x="245" y="645"/>
      <point x="245" y="645"/>
      <point x="245" y="645" type="curve"/>
      <point x="245" y="655" type="line"/>
      <point x="245" y="655"/>
      <point x="245" y="655"/>
      <point x="245" y="655" type="curve"/>
    </contour>
    <contour>
      <point x="145" y="655" type="line"/>
      <point x="155" y="655" type="line"/>
      <point x="155" y="655"/>
      <point x="155" y="655"/>
      <point x="155" y="655" type="curve"/>
      <point x="155" y="645" type="line"/>
      <point x="155" y="645"/>
      <point x="155" y="645"/>
      <point x="155" y="645" type="curve"/>
      <point x="145" y="645" type="line"/>
      <point x="145" y="645"/>
      <point x="145" y="645"/>
      <point x="145" y="645" type="curve"/>
      <point x="145" y="655" type="line"/>
      <point x="145" y="655"/>
      <point x="145" y="655"/>
      <point x="145" y="655" type="curve"/>
    </contour>
    <contour>
      <point x="445" y="755" type="line"/>
      <point x="455" y="755" type="line"/>
      <point x="455" y="755"/>
      <point x="455" y="755"/>
      <point x="455" y="755" type="curve"/>
      <point x="455" y="745" type="line"/>
      <point x="455" y="745"/>
      <point x="455" y="745"/>
      <point x="455" y="745" type="curve"/>
      <point x="445" y="745" type="line"/>
      <point x="445" y="745"/>
      <point x="445" y="745"/>
      <point x="445" y="745" type="curve"/>
      <point x="445" y="755" type="line"/>
      <point x="445" y="755"/>
      <point x="445" y="755"/>
      <point x="445" y="755" type="curve"/>
    </contour>
    <contour>
      <point x="45" y="755" type="line"/>
      <point x="55" y="755" type="line"/>
      <point x="55" y="755"/>
      <point x="55" y="755"/>
      <point x="55" y="755" type="curve"/>
      <point x="55" y="745" type="line"/>
      <point x="55" y="745"/>
      <point x="55" y="745"/>
      <point x="55" y="745" type="curve"/>
      <point x="45" y="745" type="line"/>
      <point x="45" y="745"/>
      <point x="45" y="745"/>
      <point x="45" y="745" type="curve"/>
      <point x="45" y="755" type="line"/>
      <point x="45" y="755"/>
      <point x="45" y="755"/>
      <point x="45" y="755" type="curve"/>
    </contour>
  </outline>
</glyph>
<glyph name="uni0302" format="2">
  <advance width="600"/>
  <unicode hex="0302"/>
  <outline>
    <contour>
      <point x="345.25" y="655" type="line"/>
      <point x="354.75" y="655" type="line"/>
      <point x="355" y="655"/>
      <point x="355" y="655"/>
      <point x="355" y="654.75" type="curve"/>
      <point x="355" y="645.25" type="line"/>
      <point x="355" y="645"/>
      <point x="355" y="645"/>
      <point x="354.75" y="645" type="curve"/>
      <point x="345.25" y="645" type="line"/>
      <point x="345" y="645"/>
      <point x="345" y="645"/>
      <point x="345" y="645.25" type="curve"/>
      <point x="345" y="654.75" type="line"/>
      <point x="345" y="655"/>
      <point x="345" y="655"/>
      <point x="345.25" y="655" type="curve"/>
    </contour>
    <contour>
      <point x="145.25" y="655" type="line"/>
      <point x="154.75" y="655" type="line"/>
      <point x="155" y="655"/>
      <point x="155" y="655"/>
      <point x="155" y="654.75" type="curve"/>
      <point x="155" y="645.25" type="line"/>
      <point x="155" y="645"/>
      <point x="155" y="645"/>
      <point x="154.75" y="645" type="curve"/>
      <point x="145.25" y="645" type="line"/>
      <point x="145" y="645"/>
      <point x="145" y="645"/>
      <point x="145" y="645.25" type="curve"/>
      <point x="145" y="654.75" type="line"/>
      <point x="145" y="655"/>
      <point x="145" y="655"/>
      <point x="145.25" y="655" type="curve"/>
    </contour>
    <contour>
      <point x="245.25" y="755" type="line"/>
      <point x="254.75" y="755" type="line"/>
      <point x="255" y="755"/>
      <point x="255" y="755"/>
      <point x="255" y="754.75" type="curve"/>
      <point x="255" y="745.25" type="line"/>
      <point x="255" y="745"/>
      <point x="255" y="745"/>
      <point x="254.75" y="745" type="curve"/>
      <point x="245.25" y="745" type="line"/>
      <point x="245" y="745"/>
      <point x="245" y="745"/>
      <point x="245" y="745.25" type="curve"/>
      <point x="245" y="754.75" type="line"/>
      <point x="245" y="755"/>
      <point x="245" y="755"/>
      <point x="245.25" y="755" type="curve"/>
    </contour>
  </outline>
</glyph>
<glyph name="uni0304" format="2">
  <advance width="600"/>
  <unicode hex="0304"/>
  <outline>
    <contour>
      <point x="345.25" y="755" type="line"/>
      <point x="354.75" y="755" type="line"/>
      <point x="355" y="755"/>
      <point x="355" y="755"/>
      <point x="355" y="754.75" type="curve"/>
      <point x="355" y="745.25" type="line"/>
      <point x="355" y="745"/>
      <point x="355" y="745"/>
      <point x="354.75" y="745" type="curve"/>
      <point x="345.25" y="745" type="line"/>
      <point x="345" y="745"/>
      <point x="345" y="745"/>
      <point x="345" y="745.25" type="curve"/>
      <point x="345" y="754.75" type="line"/>
      <point x="345" y="755"/>
      <point x="345" y="755"/>
      <point x="345.25" y="755" type="curve"/>
    </contour>
    <contour>
      <point x="245.25" y="755" type="line"/>
      <point x="254.75" y="755" type="line"/>
      <point x="255" y="755"/>
      <point x="255" y="755"/>
      <point x="255" y="754.75" type="curve"/>
      <point x="255" y="745.25" type="line"/>
      <point x="255" y="745"/>
      <point x="255" y="745"/>
      <point x="254.75" y="745" type="curve"/>
      <point x="245.25" y="745" type="line"/>
      <point x="245" y="745"/>
      <point x="245" y="745"/>
      <point x="245" y="745.25" type="curve"/>
      <point x="245" y="754.75" type="line"/>
      <point x="245" y="755"/>
      <point x="245" y="755"/>
      <point x="245.25" y="755" type="curve"/>
    </contour>
    <contour>
      <point x="145.25" y="755" type="line"/>
      <point x="154.75" y="755" type="line"/>
      <point x="155" y="755"/>
      <point x="155" y="755"/>
      <point x="155" y="754.75" type="curve"/>
      <point x="155" y="745.25" type="line"/>
      <point x="155" y="745"/>
      <point x="155" y="745"/>
      <point x="154.75" y="745" type="curve"/>
      <point x="145.25" y="745" type="line"/>
      <point x="145" y="745"/>
      <point x="145" y="745"/>
      <point x="145" y="745.25" type="curve"/>
      <point x="145" y="754.75" type="line"/>
      <point x="145" y="755"/>
      <point x="145" y="755"/>
      <point x="145.25" y="755" type="curve"/>
    </contour>
  </outline>
</glyph>
<glyph name="uni0307" format="2">
  <advance width="600"/>
  <unicode hex="0307"/>
  <outline>
    <contour>
      <point x="245.25" y="755" type="line"/>
      <point x="254.75" y="755" type="line"/>
      <point x="255" y="755"/>
      <point x="255" y="755"/>
      <point x="255" y="754.75" type="curve"/>
      <point x="255" y="745.25" type="line"/>
      <point x="255" y="745"/>
      <point x="255" y="745"/>
      <point x="254.75" y="745" type="curve"/>
      <point x="245.25" y="745" type="line"/>
      <point x="245" y="745"/>
      <point x="245" y="745"/>
      <point x="245" y="745.25" type="curve"/>
      <point x="245" y="754.75" type="line"/>
      <point x="245" y="755"/>
      <point x="245" y="755"/>
      <point x="245.25" y="755" type="curve"/>
    </contour>
  </outline>
</glyph>
<glyph name="uni0308" format="2">
  <advance width="600"/>
  <unicode hex="0308"/>
  <outline>
    <contour>
      <point x="345.25" y="755" type="line"/>
      <point x="354.75" y="755" type="line"/>
      <point x="355" y="755"/>
      <point x="355" y="755"/>
      <point x="355" y="754.75" type="curve"/>
      <point x="355" y="745.25" type="line"/>
      <point x="355" y="745"/>
      <point x="355" y="745"/>
      <point x="354.75" y="745" type="curve"/>
      <point x="345.25" y="745" type="line"/>
      <point x="345" y="745"/>
      <point x="345" y="745"/>
      <point x="345" y="745.25" type="curve"/>
      <point x="345" y="754.75" type="line"/>
      <point x="345" y="755"/>
      <point x="345" y="755"/>
      <point x="345.25" y="755" type="curve"/>
    </contour>
    <contour>
      <point x="145.25" y="755" type="line"/>
      <point x="154.75" y="755" type="line"/>
      <point x="155" y="755"/>
      <point x="155" y="755"/>
      <point x="155" y="754.75" type="curve"/>
      <point x="155" y="745.25" type="line"/>
      <point x="155" y="745"/>
      <point x="155" y="745"/>
      <point x="154.75" y="745" type="curve"/>
      <point x="145.25" y="745" type="line"/>
      <point x="145" y="745"/>
      <point x="145" y="745"/>
      <point x="145" y="745.25" type="curve"/>
      <point x="145" y="754.75" type="line"/>
      <point x="145" y="755"/>
      <point x="145" y="755"/>
      <point x="145.25" y="755" type="curve"/>
    </contour>
  </outline>
</glyph>
<glyph name="uni0327" format="2">
  <advance width="600"/>
  <unicode hex="0327"/>
  <outline>
    <contour>
      <point x="145.25" y="-145" type="line"/>
      <point x="154.75" y="-145" type="line"/>
      <point x="155" y="-145"/>
      <point x="155" y="-145"/>
      <point x="155" y="-145.25" type="curve"/>
      <point x="155" y="-154.75" type="line"/>
      <point x="155" y="-155"/>
      <point x="155" y="-155"/>
      <point x="154.75" y="-155" type="curve"/>
      <point x="145.25" y="-155" type="line"/>
      <point x="145" y="-155"/>
      <point x="145" y="-155"/>
      <point x="145" y="-154.75" type="curve"/>
      <point x="145" y="-145.25" type="line"/>
      <point x="145" y="-145"/>
      <point x="145" y="-145"/>
      <point x="145.25" y="-145" type="curve"/>
    </contour>
    <contour>
      <point x="245.25" y="-45" type="line"/>
      <point x="254.75" y="-45" type="line"/>
      <point x="255" y="-45"/>
      <point x="255" y="-45"/>
      <point x="255" y="-45.25" type="curve"/>
      <point x="255" y="-54.75" type="line"/>
      <point x="255" y="-55"/>
      <point x="255" y="-55"/>
      <point x="254.75" y="-55" type="curve"/>
      <point x="245.25" y="-55" type="line"/>
      <point x="245" y="-55"/>
      <point x="245" y="-55"/>
      <point x="245" y="-54.75" type="curve"/>
      <point x="245" y="-45.25" type="line"/>
      <point x="245" y="-45"/>
      <point x="245" y="-45"/>
      <point x="245.25" y="-45" type="curve"/>
    </contour>
  </outline>
</glyph>
<glyph name="quotesinglbase" format="2">
  <advance width="600"/>
  <unicode hex="201A"/>
  <outline>
    <contour>
      <point x="245.25" y="-45" type="line"/>
      <point x="254.75" y="-45" type="line"/>
      <point x="255" y="-45"/>
      <point x="255" y="-45"/>
      <point x="255" y="-45.25" type="curve"/>
      <point x="255" y="-54.75" type="line"/>
      <point x="255" y="-55"/>
      <point x="255" y="-55"/>
      <point x="254.75" y="-55" type="curve"/>
      <point x="245.25" y="-55" type="line"/>
      <point x="245" y="-55"/>
      <point x="245" y="-55"/>
      <point x="245" y="-54.75" type="curve"/>
      <point x="245" y="-45.25" type="line"/>
      <point x="245" y="-45"/>
      <point x="245" y="-45"/>
      <point x="245.25" y="-45" type="curve"/>
    </contour>
    <contour>
      <point x="345.25" y="55" type="line"/>
      <point x="354.75" y="55" type="line"/>
      <point x="355" y="55"/>
      <point x="355" y="55"/>
      <point x="355" y="54.75" type="curve"/>
      <point x="355" y="45.25" type="line"/>
      <point x="355" y="45"/>
      <point x="355" y="45"/>
      <point x="354.75" y="45" type="curve"/>
      <point x="345.25" y="45" type="line"/>
      <point x="345" y="45"/>
      <point x="345" y="45"/>
      <point x="345" y="45.25" type="curve"/>
      <point x="345" y="54.75" type="line"/>
      <point x="345" y="55"/>
      <point x="345" y="55"/>
      <point x="345.25" y="55" type="curve"/>
    </contour>
    <contour>
      <point x="345.25" y="155" type="line"/>
      <point x="354.75" y="155" type="line"/>
      <point x="355" y="155"/>
      <point x="355" y="155"/>
      <point x="355" y="154.75" type="curve"/>
      <point x="355" y="145.25" type="line"/>
      <point x="355" y="145"/>
      <point x="355" y="145"/>
      <point x="354.75" y="145" type="curve"/>
      <point x="345.25" y="145" type="line"/>
      <point x="345" y="145"/>
      <point x="345" y="145"/>
      <point x="345" y="145.25" type="curve"/>
      <point x="345" y="154.75" type="line"/>
      <point x="345" y="155"/>
      <point x="345" y="155"/>
      <point x="345.25" y="155" type="curve"/>
    </contour>
    <contour>
      <point x="245.25" y="155" type="line"/>
      <point x="254.75" y="155" type="line"/>
      <point x="255" y="155"/>
      <point x="255" y="155"/>
      <point x="255" y="154.75" type="curve"/>
      <point x="255" y="145.25" type="line"/>
      <point x="255" y="145"/>
      <point x="255" y="145"/>
      <point x="254.75" y="145" type="curve"/>
      <point x="245.25" y="145" type="line"/>
      <point x="245" y="145"/>
      <point x="245" y="145"/>
      <point x="245" y="145.25" type="curve"/>
      <point x="245" y="154.75" type="line"/>
      <point x="245" y="155"/>
      <point x="245" y="155"/>
      <point x="245.25" y="155" type="curve"/>
    </contour>
  </outline>
</glyph>
<glyph name="trademark" format="2">
  <advance width="600"/>
  <unicode hex="2122"/>
  <outline>
    <contour>
      <point x="545.25" y="455" type="line"/>
      <point x="554.75" y="455" type="line"/>
      <point x="555" y="455"/>
      <point x="555" y="455"/>
      <point x="555" y="454.75" type="curve"/>
      <point x="555" y="445.25" type="line"/>
      <point x="555" y="445"/>
      <point x="555" y="445"/>
      <point x="554.75" y="445" type="curve"/>
      <point x="545.25" y="445" type="line"/>
      <point x="545" y="445"/>
      <point x="545" y="445"/>
      <point x="545" y="445.25" type="curve"/>
      <point x="545" y="454.75" type="line"/>
      <point x="545" y="455"/>
      <point x="545" y="455"/>
      <point x="545.25" y="455" type="curve"/>
    </contour>
    <contour>
      <point x="345.25" y="455" type="line"/>
      <point x="354.75" y="455" type="line"/>
      <point x="355" y="455"/>
      <point x="355" y="455"/>
      <point x="355" y="454.75" type="curve"/>
      <point x="355" y="445.25" type="line"/>
      <point x="355" y="445"/>
      <point x="355" y="445"/>
      <point x="354.75" y="445" type="curve"/>
      <point x="345.25" y="445" type="line"/>
      <point x="345" y="445"/>
      <point x="345" y="445"/>
      <point x="345" y="445.25" type="curve"/>
      <point x="345" y="454.75" type="line"/>
      <point x="345" y="455"/>
      <point x="345" y="455"/>
      <point x="345.25" y="455" type="curve"/>
    </contour>
    <contour>
      <point x="145.25" y="455" type="line"/>
      <point x="154.75" y="455" type="line"/>
      <point x="155" y="455"/>
      <point x="155" y="455"/>
      <point x="155" y="454.75" type="curve"/>
      <point x="155" y="445.25" type="line"/>
      <point x="155" y="445"/>
      <point x="155" y="445"/>
      <point x="154.75" y="445" type="curve"/>
      <point x="145.25" y="445" type="line"/>
      <point x="145" y="445"/>
      <point x="145" y="445"/>
      <point x="145" y="445.25" type="curve"/>
      <point x="145" y="454.75" type="line"/>
      <point x="145" y="455"/>
      <point x="145" y="455"/>
      <point x="145.25" y="455" type="curve"/>
    </contour>
    <contour>
      <point x="545.25" y="555" type="line"/>
      <point x="554.75" y="555" type="line"/>
      <point x="555" y="555"/>
      <point x="555" y="555"/>
      <point x="555" y="554.75" type="curve"/>
      <point x="555" y="545.25" type="line"/>
      <point x="555" y="545"/>
      <point x="555" y="545"/>
      <point x="554.75" y="545" type="curve"/>
      <point x="545.25" y="545" type="line"/>
      <point x="545" y="545"/>
      <point x="545" y="545"/>
      <point x="545" y="545.25" type="curve"/>
      <point x="545" y="554.75" type="line"/>
      <point x="545" y="555"/>
      <point x="545" y="555"/>
      <point x="545.25" y="555" type="curve"/>
    </contour>
    <contour>
      <point x="345.25" y="555" type="line"/>
      <point x="354.75" y="555" type="line"/>
      <point x="355" y="555"/>
      <point x="355" y="555"/>
      <point x="355" y="554.75" type="curve"/>
      <point x="355" y="545.25" type="line"/>
      <point x="355" y="545"/>
      <point x="355" y="545"/>
      <point x="354.75" y="545" type="curve"/>
      <point x="345.25" y="545" type="line"/>
      <point x="345" y="545"/>
      <point x="345" y="545"/>
      <point x="345" y="545.25" type="curve"/>
      <point x="345" y="554.75" type="line"/>
      <point x="345" y="555"/>
      <point x="345" y="555"/>
      <point x="345.25" y="555" type="curve"/>
    </contour>
    <contour>
      <point x="145.25" y="555" type="line"/>
      <point x="154.75" y="555" type="line"/>
      <point x="155" y="555"/>
      <point x="155" y="555"/>
      <point x="155" y="554.75" type="curve"/>
      <point x="155" y="545.25" type="line"/>
      <point x="155" y="545"/>
      <point x="155" y="545"/>
      <point x="154.75" y="545" type="curve"/>
      <point x="145.25" y="545" type="line"/>
      <point x="145" y="545"/>
      <point x="145" y="545"/>
      <point x="145" y="545.25" type="curve"/>
      <point x="145" y="554.75" type="line"/>
      <point x="145" y="555"/>
      <point x="145" y="555"/>
      <point x="145.25" y="555" type="curve"/>
    </contour>
    <contour>
      <point x="545.25" y="655" type="line"/>
      <point x="554.75" y="655" type="line"/>
      <point x="555" y="655"/>
      <point x="555" y="655"/>
      <point x="555" y="654.75" type="curve"/>
      <point x="555" y="645.25" type="line"/>
      <point x="555" y="645"/>
      <point x="555" y="645"/>
      <point x="554.75" y="645" type="curve"/>
      <point x="545.25" y="645" type="line"/>
      <point x="545" y="645"/>
      <point x="545" y="645"/>
      <point x="545" y="645.25" type="curve"/>
      <point x="545" y="654.75" type="line"/>
      <point x="545" y="655"/>
      <point x="545" y="655"/>
      <point x="545.25" y="655" type="curve"/>
    </contour>
    <contour>
      <point x="445.25" y="655" type="line"/>
      <point x="454.75" y="655" type="line"/>
      <point x="455" y="655"/>
      <point x="455" y="655"/>
      <point x="455" y="654.75" type="curve"/>
      <point x="455" y="645.25" type="line"/>
      <point x="455" y="645"/>
      <point x="455" y="645"/>
      <point x="454.75" y="645" type="curve"/>
      <point x="445.25" y="645" type="line"/>
      <point x="445" y="645"/>
      <point x="445" y="645"/>
      <point x="445" y="645.25" type="curve"/>
      <point x="445" y="654.75" type="line"/>
      <point x="445" y="655"/>
      <point x="445" y="655"/>
      <point x="445.25" y="655" type="curve"/>
    </contour>
    <contour>
      <point x="345.25" y="655" type="line"/>
      <point x="354.75" y="655" type="line"/>
      <point x="355" y="655"/>
      <point x="355" y="655"/>
      <point x="355" y="654.75" type="curve"/>
      <point x="355" y="645.25" type="line"/>
      <point x="355" y="645"/>
      <point x="355" y="645"/>
      <point x="354.75" y="645" type="curve"/>
      <point x="345.25" y="645" type="line"/>
      <point x="345" y="645"/>
      <point x="345" y="645"/>
      <point x="345" y="645.25" type="curve"/>
      <point x="345" y="654.75" type="line"/>
      <point x="345" y="655"/>
      <point x="345" y="655"/>
      <point x="345.25" y="655" type="curve"/>
    </contour>
    <contour>
      <point x="145.25" y="655" type="line"/>
      <point x="154.75" y="655" type="line"/>
      <point x="155" y="655"/>
      <point x="155" y="655"/>
      <point x="155" y="654.75" type="curve"/>
      <point x="155" y="645.25" type="line"/>
      <point x="155" y="645"/>
      <point x="155" y="645"/>
      <point x="154.75" y="645" type="curve"/>
      <point x="145.25" y="645" type="line"/>
      <point x="145" y="645"/>
      <point x="145" y="645"/>
      <point x="145" y="645.25" type="curve"/>
      <point x="145" y="654.75" type="line"/>
      <point x="145" y="655"/>
      <point x="145" y="655"/>
      <point x="145.25" y="655" type="curve"/>
    </contour>
    <contour>
      <point x="545.25" y="755" type="line"/>
      <point x="554.75" y="755" type="line"/>
      <point x="555" y="755"/>
      <point x="555" y="755"/>
      <point x="555" y="754.75" type="curve"/>
      <point x="555" y="745.25" type="line"/>
      <point x="555" y="745"/>
      <point x="555" y="745"/>
      <point x="554.75" y="745" type="curve"/>
      <point x="545.25" y="745" type="line"/>
      <point x="545" y="745"/>
      <point x="545" y="745"/>
      <point x="545" y="745.25" type="curve"/>
      <point x="545" y="754.75" type="line"/>
      <point x="545" y="755"/>
      <point x="545" y="755"/>
      <point x="545.25" y="755" type="curve"/>
    </contour>
    <contour>
      <point x="445.25" y="755" type="line"/>
      <point x="454.75" y="755" type="line"/>
      <point x="455" y="755"/>
      <point x="455" y="755"/>
      <point x="455" y="754.75" type="curve"/>
      <point x="455" y="745.25" type="line"/>
      <point x="455" y="745"/>
      <point x="455" y="745"/>
      <point x="454.75" y="745" type="curve"/>
      <point x="445.25" y="745" type="line"/>
      <point x="445" y="745"/>
      <point x="445" y="745"/>
      <point x="445" y="745.25" type="curve"/>
      <point x="445" y="754.75" type="line"/>
      <point x="445" y="755"/>
      <point x="445" y="755"/>
      <point x="445.25" y="755" type="curve"/>
    </contour>
    <contour>
      <point x="345.25" y="755" type="line"/>
      <point x="354.75" y="755" type="line"/>
      <point x="355" y="755"/>
      <point x="355" y="755"/>
      <point x="355" y="754.75" type="curve"/>
      <point x="355" y="745.25" type="line"/>
      <point x="355" y="745"/>
      <point x="355" y="745"/>
      <point x="354.75" y="745" type="curve"/>
      <point x="345.25" y="745" type="line"/>
      <point x="345" y="745"/>
      <point x="345" y="745"/>
      <point x="345" y="745.25" type="curve"/>
      <point x="345" y="754.75" type="line"/>
      <point x="345" y="755"/>
      <point x="345" y="755"/>
      <point x="345.25" y="755" type="curve"/>
    </contour>
    <contour>
      <point x="245.25" y="755" type="line"/>
      <point x="254.75" y="755" type="line"/>
      <point x="255" y="755"/>
      <point x="255" y="755"/>
      <point x="255" y="754.75" type="curve"/>
      <point x="255" y="745.25" type="line"/>
      <point x="255" y="745"/>
      <point x="255" y="745"/>
      <point x="254.75" y="745" type="curve"/>
      <point x="245.25" y="745" type="line"/>
      <point x="245" y="745"/>
      <point x="245" y="745"/>
      <point x="245" y="745.25" type="curve"/>
      <point x="245" y="754.75" type="line"/>
      <point x="245" y="755"/>
      <point x="245" y="755"/>
      <point x="245.25" y="755" type="curve"/>
    </contour>
    <contour>
      <point x="145.25" y="755" type="line"/>
      <point x="154.75" y="755" type="line"/>
      <point x="155" y="755"/>
      <point x="155" y="755"/>
      <point x="155" y="754.75" type="curve"/>
      <point x="155" y="745.25" type="line"/>
      <point x="155" y="745"/>
      <point x="155" y="745"/>
      <point x="154.75" y="745" type="curve"/>
      <point x="145.25" y="745" type="line"/>
      <point x="145" y="745"/>
      <point x="145" y="745"/>
      <point x="145" y="745.25" type="curve"/>
      <point x="145" y="754.75" type="line"/>
      <point x="145" y="755"/>
      <point x="145" y="755"/>
      <point x="145.25" y="755" type="curve"/>
    </contour>
    <contour>
      <point x="45.25" y="755" type="line"/>
      <point x="54.75" y="755" type="line"/>
      <point x="55" y="755"/>
      <point x="55" y="755"/>
      <point x="55" y="754.75" type="curve"/>
      <point x="55" y="745.25" type="line"/>
      <point x="55" y="745"/>
      <point x="55" y="745"/>
      <point x="54.75" y="745" type="curve"/>
      <point x="45.25" y="745" type="line"/>
      <point x="45" y="745"/>
      <point x="45" y="745"/>
      <point x="45" y="745.25" type="curve"/>
      <point x="45" y="754.75" type="line"/>
      <point x="45" y="755"/>
      <point x="45" y="755"/>
      <point x="45.25" y="755" type="curve"/>
    </contour>
  </outline>
</glyph>
